<svg height="512" width="512" xmlns="http://www.w3.org/2000/svg" xmlns:xlink="http://www.w3.org/1999/xlink"><clipPath id="a"><path d="m60.8 337h175v175h-175z"/></clipPath><g clip-path="url(#a)" fill-rule="evenodd" transform="matrix(2.9257 0 0 2.9257 -178 -986)"><path d="m0 337 146.6 87.5-146.6 87.5zm293.1 0-146.5 87.5 146.4 87.5z" fill="#00cf00"/><path d="m0 337 146.6 87.5 146.4-87.5zm0 175 146.6-87.5 146.4 87.5z" fill="#f00"/><g fill="#fff"><path d="m293.1 337h-27.3l-265.8 158.7v16.3h27.3l265.8-158.7z"/><path d="m197.2 424.5a50.6 50.6 0 1 1 -101.2 0 50.6 50.6 0 0 1 101.2 0z"/><path d="m0 337v16.3l265.8 158.7h27.3v-16.3l-265.8-158.7z"/></g><path d="m156.5 405.4-6.6.1-3.4 5.6-3.4-5.6-6.5-.1 3.2-5.8-3.2-5.7 6.6-.2 3.4-5.6 3.4 5.7h6.5l-3.1 5.8zm-22 38.2h-6.6l-3.4 5.7-3.4-5.6-6.6-.2 3.2-5.7-3.1-5.8 6.5-.1 3.4-5.6 3.4 5.6 6.6.2-3.2 5.7zm44.6 0h-6.6l-3.4 5.7-3.4-5.6-6.5-.2 3.1-5.7-3.1-5.8 6.6-.1 3.4-5.6 3.4 5.6 6.5.2-3.2 5.7z" fill="#f00" stroke="#00de00" stroke-width="1pt"/></g></svg>