<svg height="512" width="512" xmlns="http://www.w3.org/2000/svg" xmlns:xlink="http://www.w3.org/1999/xlink"><clipPath id="a"><path d="m250 0h500v500h-500z"/></clipPath><g clip-path="url(#a)" transform="matrix(1.024 0 0 1.024 -256 0)"><g stroke-width="1pt"><path d="m0 0h1000v500h-1000z" fill="#006"/><path d="m0 0v55.9l888.2 444.1h111.8v-55.9l-888.2-444h-111.8zm1000 0v55.9l-888.2 444.1h-111.8v-55.9l888.2-444.1z" fill="#fff"/><path d="m416.7 0v500h166.6v-500zm-416.7 166.7v166.6h1000v-166.6z" fill="#fff"/><path d="m0 200v100h1000v-100zm450-200v500h100v-500zm-450 500 333.3-166.7h74.7l-333.5 166.7zm0-500 333.3 166.7h-74.5l-258.8-129.4zm592.1 166.7 333.4-166.7h74.5l-333.3 166.7h-74.7zm408 333.3-333.5-166.7h74.5l258.9 129.4v37.3z" fill="#c00"/></g></g></svg>