<svg height="512" width="512" xmlns="http://www.w3.org/2000/svg"><g stroke-width="1pt"><path d="m0 0h512v512h-512z" fill="#006"/><path d="m0 0v19.2l234 152.6h29.5v-19.2l-234-152.6zm263.5 0v19.2l-234 152.6h-29.5v-19.2l234-152.6z" fill="#fff"/><path d="m109.8 0v171.8h43.9v-171.8h-44zm-109.8 57.3v57.3h263.5v-57.3z" fill="#fff"/><path d="m0 68.7v34.4h263.5v-34.4zm118.6-68.7v171.8h26.3v-171.8zm-118.6 171.8 87.8-57.2h19.7l-87.9 57.3h-19.6zm0-171.8 87.8 57.3h-19.6l-68.2-44.5zm156 57.3 87.8-57.3h19.7l-87.8 57.3zm107.5 114.5-87.9-57.2h19.7l68.2 44.4z" fill="#c00"/><path d="m69.1 443.6-16.3 17.2 3.2-23.5-23.6-2 20.4-12.3-13.1-19.8 22.1 8.4 7.3-22.5 7.3 22.5 22.1-8.4-13 19.8 20.3 12.1-23.6 2 3.2 23.6m295.1 6-11.5 12.3 2.3-16.5-16.6-1.5 14.3-8.5-9.2-13.9 15.6 6 5.1-16 5.1 16 15.7-6-9.3 14 14.4 8.4-16.7 1.5 2.3 16.5m-11.5-259.5-11.5 12 2.3-16.5-16.6-1.4 14.3-8.6-9.2-14 15.6 6 5.1-16 5.1 16 15.7-6-9.3 14 14.4 8.5-16.7 1.4 2.3 16.6m-104.3 88.4-11.5 12.1 2.3-16.5-16.5-1.5 14.3-8.5-9.2-14 15.6 6 5.1-15.9 5.1 15.9 15.7-6-9.3 14 14.4 8.5-16.7 1.5 2.3 16.5m163.7-36.8-11.5 12 2.3-16.5-16.6-1.4 14.3-8.5-9.2-14 15.6 6 5-16 5.2 16 15.6-6-9.2 14 14.3 8.5-16.6 1.4 2.3 16.5m-63.5 41.8-8.2-6.9 10.7-.8 4-9.9 4 10 10.8.7-8.2 6.9 2.5 10.4-9-5.7-9.2 5.7" fill="#fff" fill-rule="evenodd"/></g></svg>