<svg height="512" width="512" xmlns="http://www.w3.org/2000/svg" xmlns:xlink="http://www.w3.org/1999/xlink"><clipPath id="a"><path d="m113.6 0h493.4v493.5h-493.4z"/></clipPath><g clip-path="url(#a)" transform="matrix(1.0375 0 0 1.0375 -117.8 0)"><g fill-rule="evenodd" stroke-width="1pt"><path d="m0 0h987v164.5h-987z"/><path d="m0 164.5h987v164.5h-987z" fill="#fff"/><path d="m0 329h987v164.5h-987z" fill="#090"/><path d="m0 493.5 493.5-246.8-493.5-246.7z" fill="#f00"/><path d="m164.8 244 22 10.6h-24.5l5.5 24-15.3-19.3-15.3 19.2 5.5-23.9h-24.7l22.1-10.7-15.3-19.1 22.1 10.6 5.5-23.9 5.5 24 22-10.7z" fill="#fff"/></g></g></svg>