<svg height="512" width="512" xmlns="http://www.w3.org/2000/svg" xmlns:xlink="http://www.w3.org/1999/xlink"><clipPath id="a"><path d="m135.6 0h496.1v496h-496z"/></clipPath><g clip-path="url(#a)" fill-rule="evenodd" stroke-width="1pt" transform="matrix(1.0321 0 0 1.0321 -140 0)"><path d="m0 0h992.1v496h-992.1z" fill="#002170"/><path d="m0 226.8h992.1v42.4h-992.1z" fill="#ffb20d"/><path d="m292.4 424.4-31.9-32-10.2 44-11.7-43.7-30.9 33 11.8-43.6-43.2 13 32-31.8-44-10.3 43.6-11.6-33-31 43.6 11.8-13-43.2 31.8 32 10.3-44 11.7 43.6 30.8-32.9-11.7 43.6 43.2-13-32 31.8 44 10.3-43.6 11.6 33 30.9-43.7-11.7z" fill="#fff"/></g></svg>