<svg height="512" width="512" xmlns="http://www.w3.org/2000/svg" xmlns:xlink="http://www.w3.org/1999/xlink"><path d="m0 0h512v256h-512z" fill="#0038a8"/><path d="m0 256h512v256h-512z" fill="#ce1126"/><path d="m443.4 256-443.4 256v-512" fill="#fff"/><g fill="#fcd116" transform="matrix(5.68889 0 0 5.68889 159.3 256)"><circle r="9"/><g id="a"><g id="b"><g id="c"><path d="m-1 0h1z" transform="scale(19)"/><path id="d" d="m-.9.1.9-.1z" transform="scale(19.2381)"/><use height="100%" transform="scale(1 -1)" width="100%" xlink:href="#d"/></g><use height="100%" transform="matrix(.70710678 .70710678 -.70710678 .70710678 0 0)" width="100%" xlink:href="#c"/></g><use height="100%" transform="rotate(90)" width="100%" xlink:href="#b"/></g><use height="100%" transform="scale(-1)" width="100%" xlink:href="#a"/><g transform="translate(-2)"><g id="e" transform="translate(38)"><path id="f" d="m5 0-3.4 1.2v3.6l-2.3-2.9-3.4 1 2.1-2.9z"/><use height="100%" transform="scale(1 -1)" width="100%" xlink:href="#f"/></g><use height="100%" transform="matrix(-.5 .8660254 -.8660254 -.5 0 0)" width="100%" xlink:href="#e"/><use height="100%" transform="matrix(-.5 -.8660254 .8660254 -.5 0 0)" width="100%" xlink:href="#e"/></g></g></svg>