<svg height="512" width="512" xmlns="http://www.w3.org/2000/svg" xmlns:xlink="http://www.w3.org/1999/xlink"><clipPath id="a"><path d="m0 0h496v496h-496z"/></clipPath><g clip-path="url(#a)" fill-rule="evenodd" stroke-width="1pt" transform="scale(1.0321)"><path d="m0 491.4 956.7-491.4h-956.7z" fill="#0000d6"/><path d="m992.1 0-965.8 496h965.8z" fill="#006000"/><path d="m992.2 0h-53.2l-939 470.3v25.7h53.1l939-469.4v-26.6z" fill="#fc0"/><path d="m39 96.1 11.6-33.3-30.2-20.6h37.3l11.5-33.4 11.5 33.4h37.2l-30.1 20.6 11.5 33.2-30.1-20.5zm185.2 0 11.6-33.3-30.2-20.6h37.3l11.5-33.4 11.5 33.4h37.1l-30 20.6 11.5 33.2-30.1-20.6zm0 140 11.6-33.3-30.2-20.6h37.3l11.5-33.4 11.5 33.4h37.1l-30 20.6 11.6 33.3-30.1-20.6zm-92-69.2 11.5-33.3-30.1-20.6h37.2l11.5-33.3 11.5 33.3h37.3l-30.2 20.6 11.5 33.3-30-20.6zm-93.2 69.2 11.6-33.3-30.2-20.6h37.3l11.5-33.4 11.5 33.4h37.2l-30.1 20.6 11.5 33.2-30.1-20.6z" fill="#fff"/></g></svg>