<svg height="512" width="512" xmlns="http://www.w3.org/2000/svg" xmlns:xlink="http://www.w3.org/1999/xlink"><clipPath id="a"><path d="m0-.2h496.3v496.2h-496.3z"/></clipPath><g clip-path="url(#a)" fill-rule="evenodd" transform="matrix(1.0316 0 0 1.0316 0 .3)"><path d="m0-.2h744v496.2h-744z" fill="#ffe300"/><path d="m0 201.5h744v99.7h-744zm0-201.5h744v99.7h-744z" fill="#118600"/><path d="m0 0h297.1v301.2h-297.1z" fill="#d80000"/><path d="m130.3 124.3c0-.9 18.3-51.5 18.3-51.5l16.6 50.6s55.6 1.7 55.6.8-44 33.2-44 33.2 20.7 58.1 19.9 56.5c-.8-1.7-48.1-34.9-48.1-34.9s-48.2 33.2-47.3 33.2 18.2-54.7 18.2-54.7l-43.1-32.5 53.9-.8z" fill="#fff"/><path d="m0 396.4h744v99.7h-744z" fill="#118600"/></g></svg>