<svg height="512" width="512" xmlns="http://www.w3.org/2000/svg" xmlns:xlink="http://www.w3.org/1999/xlink"><path d="m0 0h512v512h-512z" fill="#060"/><path d="m0 0h512v365.7h-512z" fill="#fff"/><path d="m0 0h512v146.3h-512z" fill="#c00"/><g fill="#f8c300" transform="matrix(.73143 0 0 .73143 -256 0)"><path d="m672 340.7a12.5 12.5 0 0 1 23.3 5.9v50h9.4v-50a12.5 12.5 0 0 1 23.3-5.9 29.5 29.5 0 1 0 -56 0"/><path d="m678.7 327.6a20 20 0 0 1 21.3 9.6 20 20 0 0 1 21.3-9.6 21.5 21.5 0 0 0 -42.6 0" fill="#fff"/><path id="a" d="m695.3 376.6a38 38 0 0 1 -63.8 24.3 39.5 39.5 0 0 1 -59.8 17.5c3.7 36.4 58.3 29 62.3-6.4 17.2 30.1 55 21.5 66-15.4z"/><use height="100%" transform="matrix(-1 0 0 1 1400 0)" width="100%" xlink:href="#a"/><path id="b" d="m658.8 441.3c-7.6 16.5-22.8 19.3-36.1 6 0 0 5.3-3.8 11-4.8a18 18 0 0 1 4.3-14.3 22 22 0 0 1 9 11.8c8-1 11.8 1.3 11.8 1.3z"/><use height="100%" transform="matrix(.98657216 .16332596 -.16332596 .98657216 140.713561 -103.532192)" width="100%" xlink:href="#b"/><use height="100%" transform="matrix(.94721028 .32061299 -.32061299 .94721028 294.72565 -181.986157)" width="100%" xlink:href="#b"/><path d="m603 478a340 340 0 0 1 194 0" fill="none" stroke="#f8c300" stroke-width="16"/><g transform="translate(700 380)"><path id="c" d="m488533-158734-790463 574305 301930-929245 301930 929245-790463-574305z" transform="matrix(.00005 0 0 .00005 0 -140)"/><g id="d"><use height="100%" transform="translate(-70 -121.2)" width="100%" xlink:href="#c"/><use height="100%" transform="translate(-121.2 -70)" width="100%" xlink:href="#c"/><use height="100%" transform="translate(-140)" width="100%" xlink:href="#c"/></g><use height="100%" transform="scale(-1 1)" width="100%" xlink:href="#d"/></g></g></svg>