<svg height="512" width="512" xmlns="http://www.w3.org/2000/svg" xmlns:xlink="http://www.w3.org/1999/xlink"><clipPath id="a"><path d="m0 0h496v496h-496z"/></clipPath><g clip-path="url(#a)" fill-rule="evenodd" stroke-width="1pt" transform="scale(1.0321)"><path d="m0 0h744v496h-744z" fill="#fe0000"/><path d="m0 0h373.7v248h-373.7z" fill="#000095"/><path d="m273.3 173-45.8-9.4 9.7 45.8-35-31.1-14.4 44.5-14.8-44.4-34.8 31.3 9.5-45.8-45.8 9.7 31-35-44.5-14.4 44.5-14.8-31.4-34.8 45.9 9.5-9.8-45.8 35 31 14.5-44.5 14.7 44.5 34.8-31.4-9.4 45.9 45.8-9.8-31.1 35 44.5 14.4-44.4 14.8z" fill="#fff"/><path d="m231 169.5-14.4 7.7-14.1 8.3-16.4-.6-16.4.2-14-8.6-14.2-8-7.7-14.5-8.4-14 .5-16.4-.1-16.4 8.7-13.8 8-14.3 14.5-7.7 14-8.3 16.5.5 16.4-.2 13.9 8.7 14.3 8 7.7 14.5 8.3 14-.5 16.4.2 16.3-8.7 14z" fill="#000095"/><path d="m237 124.3a50.3 50.3 0 1 1 -100.5 0 50.3 50.3 0 0 1 100.5 0z" fill="#fff"/></g></svg>