<svg height="512" width="512" xmlns="http://www.w3.org/2000/svg" xmlns:xlink="http://www.w3.org/1999/xlink"><path d="m0 341.3h512v170.7h-512z" fill="#1eb53a"/><path d="m0 0h512v170.7h-512z" fill="#0099b5"/><path d="m0 163.8h512v184.4h-512z" fill="#ce1126"/><path d="m0 174h512v164h-512z" fill="#fff"/><circle cx="143.4" cy="81.9" fill="#fff" r="61.4"/><circle cx="163.8" cy="81.9" fill="#0099b5" r="61.4"/><g fill="#fff" transform="matrix(2.048 0 0 2.048 278.5 131)"><g id="a"><g id="b"><g id="c"><g id="d"><path id="e" d="m0-6-1.9 5.7 2.9 1"/><use height="100%" transform="scale(-1 1)" width="100%" xlink:href="#e"/></g><use height="100%" transform="matrix(.30901699 .95105652 -.95105652 .30901699 0 0)" width="100%" xlink:href="#d"/></g><use height="100%" transform="matrix(.30901699 -.95105652 .95105652 .30901699 0 0)" width="100%" xlink:href="#d"/><use height="100%" transform="matrix(-.80901699 .58778525 -.58778525 -.80901699 0 0)" width="100%" xlink:href="#c"/></g><use height="100%" width="100%" xlink:href="#b" y="-24"/><use height="100%" width="100%" xlink:href="#b" y="-48"/></g><use height="100%" width="100%" x="24" xlink:href="#a"/><use height="100%" width="100%" x="48" xlink:href="#a"/><use height="100%" width="100%" x="-48" xlink:href="#b"/><use height="100%" width="100%" x="-24" xlink:href="#b"/><use height="100%" width="100%" x="-24" xlink:href="#b" y="-24"/></g></svg>