<svg height="512" width="512" xmlns="http://www.w3.org/2000/svg"><g fill-rule="evenodd" stroke-width="1pt"><path d="m0 0h512v512h-512z" fill="#f00"/><path d="m0-1h256v128h-256z" fill="#00006b"/><path d="m132.5 116.6-10.1-6.9-9.8 7 3.1-12.2-9.3-7.6 12-.7 4-11.6 4.4 11.8 11.8.3-9.4 8zm-1.7-81.3-8.1-5.2-8 5.2 2.2-9.8-7.1-6.3 9.5-.8 3.5-9.1 3.7 9.2 9.3.7-7.2 6.5zm-35.9 29.3-7.9-5.6-8 5.4 2.4-9.5-7.4-6.3 9.4-.4 3.5-9.4 3.4 9.2 9.5.6-7.4 6.2zm72-6.6-7.6-4.9-7.4 5 2.1-9-6.8-5.8 9-.7 3.1-8.5 3.4 8.6 8.7.5-6.8 6zm-21.3 21.4-5-3.2-5 3.2 1.3-6-4.5-4 5.9-.5 2.3-5.7 2.3 5.7 5.8.5-4.4 4z" fill="#fff"/></g></svg>