<?xml version="1.0" encoding="UTF-8"?>
<svg width="66px" height="95px" viewBox="0 0 66 95" version="1.1" xmlns="http://www.w3.org/2000/svg" xmlns:xlink="http://www.w3.org/1999/xlink">
    <!-- Generator: Sketch 46.2 (44496) - http://www.bohemiancoding.com/sketch -->
    <title>ICON_Winner</title>
    <desc>Created with Sketch.</desc>
    <defs>
        <polygon id="path-1" points="0 47.58945 0 0.179 50 0.179 50 47.58945 50 94.9999 0 94.9999"></polygon>
        <linearGradient x1="50%" y1="115.295727%" x2="50%" y2="4.16333634e-15%" id="linearGradient-3">
            <stop stop-color="#FFA700" offset="0%"></stop>
            <stop stop-color="#FFD900" offset="100%"></stop>
        </linearGradient>
    </defs>
    <g id="Page-1" stroke="none" stroke-width="1" fill="none" fill-rule="evenodd">
        <g id="CoZ_CompetitionPage_Registration_S2" transform="translate(-687.000000, -630.000000)">
            <g id="PANEL_Competition-information" transform="translate(231.000000, 625.000000)">
                <g id="Top-information">
                    <g id="Winner-tag" transform="translate(326.000000, 0.000000)">
                        <g id="ICON_Winner" transform="translate(130.000000, 4.000000)">
                            <polygon id="Background" fill="#6060A9" points="66 1 40.3288479 50.0085632 33 48.5 25.6422419 49.9533709 -1.13686838e-13 1"></polygon>
                            <g id="Group-3" transform="translate(8.000000, 0.821000)">
                                <mask id="mask-2" fill="white">
                                    <use xlink:href="#path-1"></use>
                                </mask>
                                <g id="Clip-2"></g>
                                <path d="M25,92.5499 C13.061,92.5499 3.351,82.8289 3.351,70.8999 C3.351,58.9599 13.061,49.2399 25,49.2399 C36.931,49.2399 46.65,58.9599 46.65,70.8999 C46.65,82.8289 36.931,92.5499 25,92.5499 M25,38.9859 C26.282,38.9859 27.325,40.0289 27.325,41.3099 C27.325,42.5889 26.282,43.6299 25,43.6299 C23.719,43.6299 22.677,42.5889 22.677,41.3099 C22.677,40.0289 23.719,38.9859 25,38.9859 M27.517,46.9209 C29.66,45.9569 31.158,43.8069 31.158,41.3109 C31.158,39.3779 30.262,37.6539 28.864,36.5239 L34.112,36.5239 C34.762,36.5239 35.292,35.6509 35.292,34.5639 C35.292,33.4769 34.763,32.6039 34.112,32.6039 L32.972,32.6039 L50,0.1789 L44.51,0.1789 L30.041,27.9489 L27.711,23.4089 L39.721,0.1789 L34.211,0.1789 L24.73,17.5889 L16.11,0.7789 L15.79,0.1789 L10.32,0.1789 L25.02,28.6189 L27.083,32.6029 L22.421,32.6029 L5.53,0.1789 L0,0.1789 L17.024,32.6039 L15.898,32.6039 C15.247,32.6039 14.71,33.4769 14.71,34.5639 C14.71,35.6509 15.247,36.5239 15.898,36.5239 L21.136,36.5239 C19.74,37.6539 18.843,39.3779 18.843,41.3109 C18.843,43.8069 20.34,45.9569 22.483,46.9199 C10.349,48.1799 0.9,58.4389 0.9,70.8999 C0.9,84.2099 11.68,94.9999 25,94.9999 C38.311,94.9999 49.101,84.2099 49.101,70.8999 C49.101,58.4389 39.645,48.1799 27.517,46.9209" id="Fill-1" fill="url(#linearGradient-3)" mask="url(#mask-2)"></path>
                            </g>
                            <path d="M32.6538,58.2279 C32.9248,58.2279 33.1438,58.0079 33.1438,57.7379 L33.1438,52.8379 C33.1438,52.5669 32.9238,52.3479 32.6538,52.3479 C32.3838,52.3479 32.1638,52.5679 32.1638,52.8379 L32.1638,57.7379 C32.1638,58.0089 32.3838,58.2279 32.6538,58.2279" id="Fill-4" fill="#8181BE"></path>
                            <path d="M30.2319,58.4998 C30.2599,58.4998 30.2889,58.4968 30.3179,58.4918 C30.5849,58.4448 30.7619,58.1908 30.7149,57.9248 L29.8629,53.0998 C29.8149,52.8328 29.5619,52.6568 29.2959,52.7028 C29.0289,52.7498 28.8509,53.0038 28.8989,53.2698 L29.7509,58.0948 C29.7929,58.3328 29.9989,58.4998 30.2319,58.4998" id="Fill-6" fill="#8181BE"></path>
                            <path d="M27.4351,58.8661 C27.5071,59.0641 27.6951,59.1881 27.8951,59.1881 C27.9511,59.1881 28.0071,59.1781 28.0631,59.1581 C28.3171,59.0661 28.4491,58.7851 28.3561,58.5301 L26.6791,53.9261 C26.5871,53.6731 26.3051,53.5401 26.0511,53.6341 C25.7971,53.7261 25.6651,54.0071 25.7581,54.2621 L27.4351,58.8661 Z" id="Fill-8" fill="#8181BE"></path>
                            <path d="M25.2881,60.0282 C25.3791,60.1852 25.5431,60.2732 25.7131,60.2732 C25.7961,60.2732 25.8801,60.2522 25.9571,60.2082 C26.1911,60.0722 26.2711,59.7722 26.1371,59.5382 L23.6861,55.2942 C23.5511,55.0602 23.2511,54.9812 23.0171,55.1142 C22.7831,55.2502 22.7031,55.5502 22.8371,55.7842 L25.2881,60.0282 Z" id="Fill-10" fill="#8181BE"></path>
                            <path d="M23.375,61.5438 C23.472,61.6588 23.61,61.7188 23.751,61.7188 C23.861,61.7188 23.974,61.6818 24.065,61.6048 C24.272,61.4298 24.299,61.1218 24.126,60.9138 L20.976,57.1598 C20.802,56.9528 20.494,56.9268 20.286,57.0998 C20.079,57.2738 20.052,57.5818 20.225,57.7898 L23.375,61.5438 Z" id="Fill-12" fill="#8181BE"></path>
                            <path d="M21.7549,63.368 C21.8469,63.445 21.9579,63.483 22.0689,63.483 C22.2089,63.483 22.3469,63.423 22.4449,63.308 C22.6189,63.1 22.5909,62.791 22.3839,62.618 L18.6299,59.469 C18.4219,59.294 18.1129,59.323 17.9399,59.529 C17.7659,59.737 17.7939,60.046 18.0009,60.219 L21.7549,63.368 Z" id="Fill-14" fill="#8181BE"></path>
                            <path d="M16.2319,62.9979 L20.4749,65.4479 C20.5519,65.4919 20.6369,65.5129 20.7199,65.5129 C20.8889,65.5129 21.0539,65.4249 21.1449,65.2689 C21.2799,65.0339 21.1999,64.7339 20.9649,64.5989 L16.7219,62.1479 C16.4879,62.0159 16.1879,62.0929 16.0529,62.3279 C15.9179,62.5619 15.9979,62.8619 16.2319,62.9979" id="Fill-16" fill="#8181BE"></path>
                            <path d="M14.9741,66.0418 L19.5781,67.7168 C19.6331,67.7368 19.6891,67.7458 19.7451,67.7458 C19.9451,67.7458 20.1341,67.6218 20.2061,67.4238 C20.2991,67.1688 20.1671,66.8878 19.9131,66.7948 L15.3091,65.1198 C15.0561,65.0308 14.7731,65.1598 14.6811,65.4128 C14.5881,65.6678 14.7191,65.9488 14.9741,66.0418" id="Fill-18" fill="#8181BE"></path>
                            <path d="M14.2632,69.2577 L19.0872,70.1087 C19.1162,70.1127 19.1452,70.1157 19.1732,70.1157 C19.4062,70.1157 19.6132,69.9477 19.6542,69.7107 C19.7012,69.4447 19.5232,69.1907 19.2572,69.1447 L14.4332,68.2937 C14.1662,68.2457 13.9122,68.4247 13.8662,68.6917 C13.8182,68.9567 13.9962,69.2107 14.2632,69.2577" id="Fill-20" fill="#8181BE"></path>
                            <path d="M19.019,72.5487 C19.29,72.5487 19.509,72.3287 19.509,72.0597 C19.509,71.7887 19.289,71.5697 19.019,71.5697 L14.12,71.5697 C13.849,71.5697 13.63,71.7887 13.63,72.0597 C13.63,72.3287 13.85,72.5487 14.12,72.5487 L19.019,72.5487 Z" id="Fill-22" fill="#8181BE"></path>
                            <path d="M19.7729,74.3944 C19.7259,74.1254 19.4729,73.9504 19.2059,73.9974 L14.3809,74.8484 C14.1139,74.8954 13.9359,75.1494 13.9839,75.4154 C14.0259,75.6534 14.2319,75.8204 14.4649,75.8204 C14.4929,75.8204 14.5219,75.8174 14.5509,75.8124 L19.3759,74.9604 C19.6429,74.9154 19.8199,74.6614 19.7729,74.3944" id="Fill-24" fill="#8181BE"></path>
                            <path d="M20.439,76.6502 C20.346,76.3972 20.065,76.2682 19.811,76.3572 L15.207,78.0332 C14.952,78.1262 14.821,78.4072 14.914,78.6622 C14.986,78.8602 15.174,78.9842 15.374,78.9842 C15.43,78.9842 15.486,78.9742 15.542,78.9552 L20.146,77.2792 C20.4,77.1862 20.532,76.9052 20.439,76.6502" id="Fill-26" fill="#8181BE"></path>
                            <path d="M21.4858,78.7547 C21.3508,78.5217 21.0508,78.4417 20.8168,78.5757 L16.5728,81.0267 C16.3388,81.1617 16.2588,81.4617 16.3938,81.6957 C16.4848,81.8537 16.6488,81.9417 16.8188,81.9417 C16.9018,81.9417 16.9858,81.9197 17.0628,81.8747 L21.3068,79.4237 C21.5418,79.2887 21.6218,78.9887 21.4858,78.7547" id="Fill-28" fill="#8181BE"></path>
                            <path d="M22.8838,80.6483 C22.7098,80.4403 22.4018,80.4133 22.1938,80.5863 L18.4408,83.7353 C18.2328,83.9093 18.2068,84.2163 18.3798,84.4233 C18.4768,84.5403 18.6148,84.6003 18.7558,84.6003 C18.8658,84.6003 18.9788,84.5623 19.0698,84.4853 L22.8228,81.3363 C23.0308,81.1643 23.0578,80.8553 22.8838,80.6483" id="Fill-30" fill="#8181BE"></path>
                            <path d="M24.5889,82.2674 C24.3809,82.0914 24.0719,82.1214 23.8989,82.3274 L20.7489,86.0804 C20.5749,86.2884 20.6029,86.5964 20.8099,86.7704 C20.9019,86.8464 21.0139,86.8844 21.1239,86.8844 C21.2649,86.8844 21.4029,86.8254 21.4999,86.7094 L24.6499,82.9564 C24.8229,82.7494 24.7959,82.4414 24.5889,82.2674" id="Fill-32" fill="#8181BE"></path>
                            <path d="M26.5488,83.5682 C26.3148,83.4292 26.0148,83.5112 25.8788,83.7472 L23.4288,87.9892 C23.2938,88.2232 23.3738,88.5232 23.6088,88.6582 C23.6858,88.7032 23.7698,88.7242 23.8528,88.7242 C24.0228,88.7242 24.1868,88.6352 24.2778,88.4792 L26.7278,84.2372 C26.8628,84.0032 26.7828,83.7032 26.5488,83.5682" id="Fill-34" fill="#8181BE"></path>
                            <path d="M28.7051,84.5067 C28.4521,84.4127 28.1691,84.5447 28.0771,84.7987 L26.4001,89.4027 C26.3071,89.6577 26.4381,89.9397 26.6931,90.0307 C26.7481,90.0517 26.8041,90.0617 26.8601,90.0617 C27.0601,90.0617 27.2491,89.9377 27.3211,89.7387 L28.9981,85.1347 C29.0911,84.8797 28.9591,84.5987 28.7051,84.5067" id="Fill-36" fill="#8181BE"></path>
                            <path d="M30.9912,85.0575 C30.7212,85.0115 30.4702,85.1875 30.4242,85.4535 L29.5712,90.2785 C29.5242,90.5445 29.7022,90.7985 29.9682,90.8445 C29.9972,90.8505 30.0262,90.8535 30.0542,90.8535 C30.2872,90.8535 30.4932,90.6865 30.5352,90.4485 L31.3882,85.6235 C31.4362,85.3585 31.2582,85.1045 30.9912,85.0575" id="Fill-38" fill="#8181BE"></path>
                            <path d="M33.3379,85.202 C33.0669,85.202 32.8479,85.422 32.8479,85.692 L32.8469,90.591 C32.8469,90.862 33.0669,91.081 33.3369,91.081 C33.6069,91.081 33.8259,90.861 33.8269,90.591 L33.8279,85.692 C33.8279,85.422 33.6079,85.202 33.3379,85.202" id="Fill-40" fill="#8181BE"></path>
                            <path d="M35.6748,84.9373 C35.4078,84.9843 35.2318,85.2383 35.2788,85.5033 L36.1278,90.3303 C36.1698,90.5673 36.3758,90.7353 36.6098,90.7353 C36.6368,90.7353 36.6668,90.7323 36.6958,90.7273 C36.9618,90.6793 37.1388,90.4253 37.0918,90.1603 L36.2418,85.3333 C36.1958,85.0693 35.9348,84.8923 35.6748,84.9373" id="Fill-42" fill="#8181BE"></path>
                            <path d="M38.5586,84.5643 C38.4646,84.3113 38.1866,84.1823 37.9296,84.2713 C37.6756,84.3643 37.5446,84.6453 37.6366,84.9003 L39.3116,89.5033 C39.3846,89.7023 39.5736,89.8263 39.7736,89.8263 C39.8296,89.8263 39.8846,89.8163 39.9416,89.7963 C40.1956,89.7043 40.3266,89.4223 40.2346,89.1683 L38.5586,84.5643 Z" id="Fill-44" fill="#8181BE"></path>
                            <path d="M40.7041,83.4032 C40.5681,83.1682 40.2661,83.0912 40.0341,83.2232 C39.8001,83.3592 39.7201,83.6592 39.8531,83.8932 L42.3031,88.1362 C42.3931,88.2942 42.5581,88.3822 42.7271,88.3822 C42.8111,88.3822 42.8961,88.3612 42.9731,88.3172 C43.2071,88.1812 43.2871,87.8812 43.1531,87.6472 L40.7041,83.4032 Z" id="Fill-46" fill="#8181BE"></path>
                            <path d="M42.6172,81.8885 C42.4442,81.6795 42.1352,81.6555 41.9282,81.8275 C41.7202,82.0015 41.6932,82.3105 41.8672,82.5175 L45.0142,86.2715 C45.1122,86.3865 45.2502,86.4475 45.3892,86.4475 C45.5012,86.4475 45.6132,86.4095 45.7042,86.3315 C45.9122,86.1585 45.9392,85.8505 45.7642,85.6435 L42.6172,81.8885 Z" id="Fill-48" fill="#8181BE"></path>
                            <path d="M44.2373,80.0623 C44.0293,79.8863 43.7183,79.9153 43.5473,80.1223 C43.3733,80.3293 43.4003,80.6383 43.6073,80.8123 L47.3593,83.9623 C47.4513,84.0403 47.5633,84.0783 47.6743,84.0783 C47.8143,84.0783 47.9523,84.0183 48.0493,83.9033 C48.2223,83.6963 48.1963,83.3853 47.9893,83.2123 L44.2373,80.0623 Z" id="Fill-50" fill="#8181BE"></path>
                            <path d="M49.7588,80.4354 L45.5148,77.9844 C45.2838,77.8494 44.9818,77.9264 44.8448,78.1634 C44.7098,78.3974 44.7898,78.6974 45.0258,78.8314 L49.2688,81.2834 C49.3458,81.3284 49.4298,81.3494 49.5138,81.3494 C49.6828,81.3494 49.8478,81.2604 49.9398,81.1044 C50.0728,80.8704 49.9928,80.5704 49.7588,80.4354" id="Fill-52" fill="#8181BE"></path>
                            <path d="M51.0176,77.3914 L46.4136,75.7144 C46.1586,75.6204 45.8786,75.7524 45.7866,76.0064 C45.6936,76.2614 45.8246,76.5424 46.0786,76.6344 L50.6816,78.3114 C50.7386,78.3314 50.7936,78.3404 50.8496,78.3404 C51.0496,78.3404 51.2386,78.2164 51.3096,78.0194 C51.4026,77.7634 51.2716,77.4834 51.0176,77.3914" id="Fill-54" fill="#8181BE"></path>
                            <path d="M51.7285,74.1776 L46.9045,73.3236 C46.6425,73.2756 46.3825,73.4536 46.3365,73.7206 C46.2905,73.9876 46.4675,74.2416 46.7345,74.2876 L51.5585,75.1426 C51.5865,75.1476 51.6175,75.1506 51.6445,75.1506 C51.8765,75.1506 52.0835,74.9836 52.1255,74.7446 C52.1725,74.4796 51.9955,74.2246 51.7285,74.1776" id="Fill-56" fill="#8181BE"></path>
                            <path d="M46.9707,70.8846 C46.6997,70.8846 46.4817,71.1056 46.4817,71.3746 C46.4817,71.6456 46.7007,71.8646 46.9707,71.8646 L51.8707,71.8666 C52.1417,71.8666 52.3617,71.6476 52.3617,71.3766 C52.3617,71.1076 52.1407,70.8866 51.8707,70.8866 L46.9707,70.8846 Z" id="Fill-58" fill="#8181BE"></path>
                            <path d="M46.2168,69.0379 C46.2588,69.2749 46.4648,69.4429 46.6978,69.4429 C46.7258,69.4429 46.7558,69.4399 46.7838,69.4349 L51.6128,68.5849 C51.8788,68.5379 52.0558,68.2839 52.0088,68.0179 C51.9618,67.7519 51.7038,67.5739 51.4428,67.6209 L46.6138,68.4709 C46.3478,68.5169 46.1698,68.7709 46.2168,69.0379" id="Fill-60" fill="#8181BE"></path>
                            <path d="M45.5488,66.785 C45.6218,66.983 45.8098,67.107 46.0098,67.107 C46.0668,67.107 46.1218,67.097 46.1778,67.078 L50.7848,65.402 C51.0388,65.309 51.1698,65.028 51.0778,64.773 C50.9848,64.52 50.7048,64.391 50.4488,64.48 L45.8418,66.156 C45.5878,66.249 45.4568,66.53 45.5488,66.785" id="Fill-62" fill="#8181BE"></path>
                            <path d="M44.5029,64.6795 C44.5939,64.8365 44.7589,64.9245 44.9279,64.9245 C45.0119,64.9245 45.0959,64.9045 45.1729,64.8605 L49.4189,62.4095 C49.6529,62.2745 49.7329,61.9745 49.5989,61.7405 C49.4629,61.5045 49.1609,61.4275 48.9289,61.5605 L44.6829,64.0095 C44.4479,64.1455 44.3679,64.4455 44.5029,64.6795" id="Fill-64" fill="#8181BE"></path>
                            <path d="M43.1074,62.7899 C43.2044,62.9049 43.3414,62.9649 43.4824,62.9649 C43.5924,62.9649 43.7064,62.9269 43.7964,62.8509 L47.5514,59.6979 C47.7584,59.5239 47.7854,59.2159 47.6124,59.0079 C47.4394,58.8019 47.1284,58.7759 46.9214,58.9479 L43.1674,62.1009 C42.9604,62.2729 42.9334,62.5819 43.1074,62.7899" id="Fill-66" fill="#8181BE"></path>
                            <path d="M41.4023,61.1698 C41.4943,61.2468 41.6053,61.2848 41.7153,61.2848 C41.8563,61.2848 41.9943,61.2248 42.0903,61.1088 L45.2433,57.3508 C45.4183,57.1438 45.3893,56.8348 45.1813,56.6618 C44.9733,56.4868 44.6663,56.5128 44.4933,56.7228 L41.3403,60.4808 C41.1673,60.6868 41.1943,60.9958 41.4023,61.1698" id="Fill-68" fill="#8181BE"></path>
                            <path d="M39.4424,59.8719 C39.5184,59.9159 39.6024,59.9369 39.6864,59.9369 C39.8564,59.9369 40.0214,59.8489 40.1124,59.6919 L42.5634,55.4439 C42.6984,55.2099 42.6184,54.9099 42.3824,54.7739 C42.1524,54.6409 41.8484,54.7179 41.7134,54.9539 L39.2614,59.2019 C39.1284,59.4359 39.2084,59.7359 39.4424,59.8719" id="Fill-70" fill="#8181BE"></path>
                            <path d="M37.29,58.931 C37.345,58.951 37.401,58.96 37.457,58.96 C37.657,58.96 37.845,58.836 37.918,58.637 L39.594,54.029 C39.686,53.775 39.555,53.494 39.3,53.401 C39.048,53.31 38.766,53.441 38.672,53.695 L36.996,58.303 C36.904,58.557 37.035,58.839 37.29,58.931" id="Fill-72" fill="#8181BE"></path>
                            <path d="M35.0039,58.3812 C35.0319,58.3862 35.0619,58.3892 35.0899,58.3892 C35.3229,58.3892 35.5289,58.2212 35.5709,57.9842 L36.4209,53.1542 C36.4679,52.8872 36.2899,52.6332 36.0249,52.5872 C35.7619,52.5432 35.5029,52.7182 35.4569,52.9842 L34.6079,57.8142 C34.5599,58.0802 34.7369,58.3342 35.0039,58.3812" id="Fill-74" fill="#8181BE"></path>
                            <path d="M36.748,77.2948 L32.903,74.4998 L29.056,77.2948 L30.526,72.7748 L26.678,69.9778 L31.432,69.9778 L32.903,65.4598 L34.372,69.9778 L39.125,69.9778 L35.278,72.7748 L36.748,77.2948 Z M33,60.8408 C27,60.8408 22.131,65.7208 22.131,71.7208 C22.131,77.7108 27,82.5908 33,82.5908 C38.99,82.5908 43.871,77.7108 43.871,71.7208 C43.871,65.7208 38.99,60.8408 33,60.8408 L33,60.8408 Z" id="Fill-76" fill="url(#linearGradient-3)"></path>
                        </g>
                    </g>
                </g>
            </g>
        </g>
    </g>
</svg>