<?xml version="1.0" encoding="UTF-8"?>
<svg width="44px" height="44px" viewBox="0 0 44 44" version="1.1" xmlns="http://www.w3.org/2000/svg" xmlns:xlink="http://www.w3.org/1999/xlink">
    <!-- Generator: Sketch 46.2 (44496) - http://www.bohemiancoding.com/sketch -->
    <title>ICON_Calendar</title>
    <desc>Created with Sketch.</desc>
    <defs>
        <linearGradient x1="0%" y1="100%" x2="100%" y2="0%" id="linearGradient-1">
            <stop stop-color="#FFA700" offset="0%"></stop>
            <stop stop-color="#FFD900" offset="100%"></stop>
        </linearGradient>
    </defs>
    <g id="Page-1" stroke="none" stroke-width="1" fill="none" fill-rule="evenodd">
        <g id="CoZ_CompetitionPage_Registration_S4" transform="translate(-1022.000000, -715.000000)" fill="url(#linearGradient-1)">
            <g id="PANEL_Competition-information" transform="translate(231.000000, 625.000000)">
                <g id="Top-information">
                    <g id="Submission-date" transform="translate(731.000000, 90.000000)">
                        <path d="M92,36 L96,36 L96,32 L92,32 L92,36 Z M91,30 C90.4,30 90,30.4 90,31 L90,37 C90,37.6 90.4,38 91,38 L97,38 C97.6,38 98,37.6 98,37 L98,31 C98,30.4 97.6,30 97,30 L91,30 Z M92,26 L96,26 L96,22 L92,22 L92,26 Z M91,20 C90.4,20 90,20.4 90,21 L90,27 C90,27.6 90.4,28 91,28 L97,28 C97.6,28 98,27.6 98,27 L98,21 C98,20.4 97.6,20 97,20 L91,20 Z M68,36 L72,36 L72,32 L68,32 L68,36 Z M67,30 C66.4,30 66,30.4 66,31 L66,37 C66,37.6 66.4,38 67,38 L73,38 C73.6,38 74,37.6 74,37 L74,31 C74,30.4 73.6,30 73,30 L67,30 Z M68,26 L72,26 L72,22 L68,22 L68,26 Z M67,20 C66.4,20 66,20.4 66,21 L66,27 C66,27.6 66.4,28 67,28 L73,28 C73.6,28 74,27.6 74,27 L74,21 C74,20.4 73.6,20 73,20 L67,20 Z M80,36 L84,36 L84,32 L80,32 L80,36 Z M79,30 C78.4,30 78,30.4 78,31 L78,37 C78,37.6 78.4,38 79,38 L85,38 C85.6,38 86,37.6 86,37 L86,31 C86,30.4 85.6,30 85,30 L79,30 Z M80,26 L84,26 L84,22 L80,22 L80,26 Z M79,20 C78.4,20 78,20.4 78,21 L78,27 C78,27.6 78.4,28 79,28 L85,28 C85.6,28 86,27.6 86,27 L86,21 C86,20.4 85.6,20 85,20 L79,20 Z M63,42 C62.4,42 62,41.6 62,41 L62,16 L102,16 L102,41 C102,41.6 101.6,42 101,42 L63,42 Z M66,6 L66,7 C66,7.6 66.4,8 67,8 C67.6,8 68,7.6 68,7 L68,6 L72,6 L72,7 C72,7.6 72.4,8 73,8 C73.6,8 74,7.6 74,7 L74,6 L78,6 L78,7 C78,7.6 78.4,8 79,8 C79.6,8 80,7.6 80,7 L80,6 L84,6 L84,7 C84,7.6 84.4,8 85,8 C85.6,8 86,7.6 86,7 L86,6 L90,6 L90,7 C90,7.6 90.4,8 91,8 C91.6,8 92,7.6 92,7 L92,6 L96,6 L96,7 C96,7.6 96.4,8 97,8 C97.6,8 98,7.6 98,7 L98,6 L101,6 C101.6,6 102,6.4 102,7 L102,14 L62,14 L62,7 C62,6.4 62.4,6 63,6 L66,6 Z M98,4 L98,1 C98,0.4 97.6,0 97,0 C96.4,0 96,0.4 96,1 L96,4 L92,4 L92,1 C92,0.4 91.6,0 91,0 C90.4,0 90,0.4 90,1 L90,4 L86,4 L86,1 C86,0.4 85.6,0 85,0 C84.4,0 84,0.4 84,1 L84,4 L80,4 L80,1 C80,0.4 79.6,0 79,0 C78.4,0 78,0.4 78,1 L78,4 L74,4 L74,1 C74,0.4 73.6,0 73,0 C72.4,0 72,0.4 72,1 L72,4 L68,4 L68,1 C68,0.4 67.6,0 67,0 C66.4,0 66,0.4 66,1 L66,4 L63,4 C61.3,4 60,5.3 60,7 L60,41 C60,42.7 61.3,44 63,44 L101,44 C102.7,44 104,42.7 104,41 L104,7 C104,5.3 102.7,4 101,4 L98,4 Z" id="ICON_Calendar"></path>
                    </g>
                </g>
            </g>
        </g>
    </g>
</svg>