<?xml version="1.0" encoding="UTF-8"?>
<svg width="1024px" height="1024px" viewBox="0 0 1024 1024" version="1.1" xmlns="http://www.w3.org/2000/svg" xmlns:xlink="http://www.w3.org/1999/xlink">
    <!-- Generator: Sketch 49.3 (51167) - http://www.bohemiancoding.com/sketch -->
    <title>logo-with-text-dark-blue-on-light-blue</title>
    <desc>Created with Sketch.</desc>
    <defs>
        <polygon id="path-1" points="0.961333333 0.523333333 57.2666667 0.523333333 57.2666667 56.83 0.961333333 56.83"></polygon>
        <polygon id="path-3" points="0.275546559 0.272226721 80.502753 0.272226721 80.502753 81.5916599 0.275546559 81.5916599"></polygon>
        <polygon id="path-5" points="0 0.482770833 80.2238866 0.482770833 80.2238866 97.7083333 0 97.7083333"></polygon>
        <polygon id="path-7" points="0.961333333 0.523333333 57.2666667 0.523333333 57.2666667 56.83 0.961333333 56.83"></polygon>
        <polygon id="path-9" points="0.275546559 0.272226721 80.502753 0.272226721 80.502753 81.5916599 0.275546559 81.5916599"></polygon>
        <polygon id="path-11" points="0 0.482770833 80.2238866 0.482770833 80.2238866 97.7083333 0 97.7083333"></polygon>
    </defs>
    <g id="logo-with-text-dark-blue-on-light-blue" stroke="none" stroke-width="1" fill="none" fill-rule="evenodd">
        <rect id="Rectangle" fill="#DEE6EB" x="0" y="0" width="1024" height="1024"></rect>
        <g id="Page-1" transform="translate(52.000000, 441.000000)">
            <path d="M221.138905,51.400663 C220.201472,51.400663 219.423602,52.1830452 219.423602,53.1112953 L219.423602,88.8887047 C219.423602,89.8235851 220.201472,90.6059673 221.138905,90.6059673 L267,90.6059673 L267,99 L221.138905,99 C215.527603,99 211,94.4913569 211,88.8887047 L211,53.1112953 C211,47.5152735 215.527603,43 221.138905,43 L267,43 L267,51.400663 L221.138905,51.400663" id="Fill-1" fill="#191C48"></path>
            <polygon id="Fill-3" fill="#191C48" points="289 48.8347147 298 43 298 99 289 99"></polygon>
            <polygon id="Fill-5" fill="#191C48" points="371 43 371 51.400663 347.203647 51.400663 347.203647 99 338.802984 99 338.802984 51.400663 315 51.400663 315 43"></polygon>
            <polygon id="Fill-7" fill="#191C48" points="448 43 422.193905 78.0016576 422.193905 99 413.79947 99 413.79947 78.0016576 388 43 397.871908 43 418 68.5136159 438.048587 43"></polygon>
            <path d="M545.888705,90.6003315 C546.823585,90.6003315 547.599337,89.8246715 547.599337,88.8832722 L547.599337,53.1100983 C547.599337,52.1819581 546.823585,51.3996685 545.888705,51.3996685 L510.111295,51.3996685 C509.176415,51.3996685 508.400663,52.1819581 508.400663,53.1100983 L508.400663,88.8832722 C508.400663,89.8246715 509.176415,90.6003315 510.111295,90.6003315 L545.888705,90.6003315 Z M545.888705,43 C551.484726,43 556,47.514739 556,53.1100983 L556,88.8832722 C556,94.485261 551.484726,99 545.888705,99 L510.111295,99 C504.508643,99 500,94.485261 500,88.8832722 L500,53.1100983 C500,47.514739 504.508643,43 510.111295,43 L545.888705,43 Z" id="Fill-9" fill="#191C48"></path>
            <polygon id="Fill-11" fill="#191C48" points="629 43 629 51.400663 585.508847 51.400663 585.508847 66.8029837 620.484438 66.8029837 620.484438 75.2036467 585.508847 75.2036467 585.508847 99 577 99 577 43"></polygon>
            <polygon id="Fill-13" fill="#191C48" points="681 43 737 43 737 52.9587971 692.198674 90.6059673 737 90.6059673 737 99 681 99 681 89.0478333 725.801326 51.400663 681 51.400663"></polygon>
            <polygon id="Fill-15" fill="#191C48" points="758 49.8108108 767 43 767 99 758 99"></polygon>
            <path d="M833.888705,90.6003315 C834.823585,90.6003315 835.599337,89.8246715 835.599337,88.8832722 L835.599337,53.1100983 C835.599337,52.1819581 834.823585,51.3996685 833.888705,51.3996685 L798.111295,51.3996685 C797.176415,51.3996685 796.400663,52.1819581 796.400663,53.1100983 L796.400663,88.8832722 C796.400663,89.8246715 797.176415,90.6003315 798.111295,90.6003315 L833.888705,90.6003315 Z M833.888705,43 C839.491357,43 844,47.514739 844,53.1100983 L844,88.8832722 C844,94.485261 839.491357,99 833.888705,99 L798.111295,99 C792.515274,99 788,94.485261 788,88.8832722 L788,53.1100983 C788,47.514739 792.515274,43 798.111295,43 L833.888705,43 Z" id="Fill-17" fill="#191C48"></path>
            <g id="Group-21" transform="translate(862.000000, 44.000000)">
                <mask id="mask-2" fill="white">
                    <use xlink:href="#path-1"></use>
                </mask>
                <g id="Clip-20"></g>
                <polygon id="Fill-19" fill="#191C48" mask="url(#mask-2)" points="48.8213333 0.523333333 57.268 0.523333333 57.268 56.83 47.2613333 56.83 9.408 11.7833333 9.408 56.83 0.961333333 56.83 0.961333333 0.523333333 10.968 0.523333333 48.8213333 45.57"></polygon>
            </g>
            <polygon id="Fill-22" fill="#191C48" points="159 101.5 138.997793 121 99 121 138.997793 82"></polygon>
            <g id="Group-26" transform="translate(39.000000, 0.000000)">
                <mask id="mask-4" fill="white">
                    <use xlink:href="#path-3"></use>
                </mask>
                <g id="Clip-25"></g>
                <polygon id="Fill-24" fill="#191C48" mask="url(#mask-4)" points="80.502753 61.5331984 62.0643725 41.4747368 80.502753 21.422915 60.4442915 1.36445344 40.38583 21.422915 21.422915 0.268906883 0.275546559 21.422915 60.4442915 81.5916599"></polygon>
            </g>
            <g id="Group-29" transform="translate(0.000000, 44.000000)">
                <mask id="mask-6" fill="white">
                    <use xlink:href="#path-5"></use>
                </mask>
                <g id="Clip-28"></g>
                <polygon id="Fill-27" fill="#191C48" mask="url(#mask-6)" points="20.0551417 0.482770833 80.2238866 58.8193958 40.1136032 97.7083333 -0.00331983806 97.7083333 40.1136032 58.8193958 -0.00331983806 19.9304583"></polygon>
            </g>
            <path d="M221.138905,51.400663 C220.201472,51.400663 219.423602,52.1830452 219.423602,53.1112953 L219.423602,88.8887047 C219.423602,89.8235851 220.201472,90.6059673 221.138905,90.6059673 L267,90.6059673 L267,99 L221.138905,99 C215.527603,99 211,94.4913569 211,88.8887047 L211,53.1112953 C211,47.5152735 215.527603,43 221.138905,43 L267,43 L267,51.400663 L221.138905,51.400663" id="Fill-30" fill="#191C48"></path>
            <polygon id="Fill-32" fill="#191C48" points="289 48.8347147 298 43 298 99 289 99"></polygon>
            <polygon id="Fill-34" fill="#191C48" points="371 43 371 51.400663 347.203647 51.400663 347.203647 99 338.802984 99 338.802984 51.400663 315 51.400663 315 43"></polygon>
            <polygon id="Fill-36" fill="#191C48" points="448 43 422.193905 78.0016576 422.193905 99 413.79947 99 413.79947 78.0016576 388 43 397.871908 43 418 68.5136159 438.048587 43"></polygon>
            <path d="M545.888705,90.6003315 C546.823585,90.6003315 547.599337,89.8246715 547.599337,88.8832722 L547.599337,53.1100983 C547.599337,52.1819581 546.823585,51.3996685 545.888705,51.3996685 L510.111295,51.3996685 C509.176415,51.3996685 508.400663,52.1819581 508.400663,53.1100983 L508.400663,88.8832722 C508.400663,89.8246715 509.176415,90.6003315 510.111295,90.6003315 L545.888705,90.6003315 Z M545.888705,43 C551.484726,43 556,47.514739 556,53.1100983 L556,88.8832722 C556,94.485261 551.484726,99 545.888705,99 L510.111295,99 C504.508643,99 500,94.485261 500,88.8832722 L500,53.1100983 C500,47.514739 504.508643,43 510.111295,43 L545.888705,43 Z" id="Fill-38" fill="#191C48"></path>
            <polygon id="Fill-40" fill="#191C48" points="629 43 629 51.400663 585.508847 51.400663 585.508847 66.8029837 620.484438 66.8029837 620.484438 75.2036467 585.508847 75.2036467 585.508847 99 577 99 577 43"></polygon>
            <polygon id="Fill-42" fill="#191C48" points="681 43 737 43 737 52.9587971 692.198674 90.6059673 737 90.6059673 737 99 681 99 681 89.0478333 725.801326 51.400663 681 51.400663"></polygon>
            <polygon id="Fill-44" fill="#191C48" points="758 49.8108108 767 43 767 99 758 99"></polygon>
            <path d="M833.888705,90.6003315 C834.823585,90.6003315 835.599337,89.8246715 835.599337,88.8832722 L835.599337,53.1100983 C835.599337,52.1819581 834.823585,51.3996685 833.888705,51.3996685 L798.111295,51.3996685 C797.176415,51.3996685 796.400663,52.1819581 796.400663,53.1100983 L796.400663,88.8832722 C796.400663,89.8246715 797.176415,90.6003315 798.111295,90.6003315 L833.888705,90.6003315 Z M833.888705,43 C839.491357,43 844,47.514739 844,53.1100983 L844,88.8832722 C844,94.485261 839.491357,99 833.888705,99 L798.111295,99 C792.515274,99 788,94.485261 788,88.8832722 L788,53.1100983 C788,47.514739 792.515274,43 798.111295,43 L833.888705,43 Z" id="Fill-46" fill="#191C48"></path>
            <g id="Group-50" transform="translate(862.000000, 44.000000)">
                <mask id="mask-8" fill="white">
                    <use xlink:href="#path-7"></use>
                </mask>
                <g id="Clip-49"></g>
                <polygon id="Fill-48" fill="#191C48" mask="url(#mask-8)" points="48.8213333 0.523333333 57.268 0.523333333 57.268 56.83 47.2613333 56.83 9.408 11.7833333 9.408 56.83 0.961333333 56.83 0.961333333 0.523333333 10.968 0.523333333 48.8213333 45.57"></polygon>
            </g>
            <polygon id="Fill-51" fill="#191C48" points="159 101.5 138.997793 121 99 121 138.997793 82"></polygon>
            <g id="Group-55" transform="translate(39.000000, 0.000000)">
                <mask id="mask-10" fill="white">
                    <use xlink:href="#path-9"></use>
                </mask>
                <g id="Clip-54"></g>
                <polygon id="Fill-53" fill="#191C48" mask="url(#mask-10)" points="80.502753 61.5331984 62.0643725 41.4747368 80.502753 21.422915 60.4442915 1.36445344 40.38583 21.422915 21.422915 0.268906883 0.275546559 21.422915 60.4442915 81.5916599"></polygon>
            </g>
            <g id="Group-58" transform="translate(0.000000, 44.000000)">
                <mask id="mask-12" fill="white">
                    <use xlink:href="#path-11"></use>
                </mask>
                <g id="Clip-57"></g>
                <polygon id="Fill-56" fill="#191C48" mask="url(#mask-12)" points="20.0551417 0.482770833 80.2238866 58.8193958 40.1136032 97.7083333 -0.00331983806 97.7083333 40.1136032 58.8193958 -0.00331983806 19.9304583"></polygon>
            </g>
        </g>
    </g>
</svg>