<?xml version="1.0" encoding="UTF-8"?>
<svg width="1024px" height="1024px" viewBox="0 0 1024 1024" version="1.1" xmlns="http://www.w3.org/2000/svg" xmlns:xlink="http://www.w3.org/1999/xlink">
    <!-- Generator: Sketch 49.3 (51167) - http://www.bohemiancoding.com/sketch -->
    <title>logo-with-text-white-on-black</title>
    <desc>Created with Sketch.</desc>
    <defs>
        <polygon id="path-1" points="0.940879433 1.48439716 56.048227 1.48439716 56.048227 56.58 0.940879433 56.58"></polygon>
        <polygon id="path-3" points="0 5.83971631 78.8361702 5.83971631 78.8361702 104.397163 0 104.397163"></polygon>
    </defs>
    <g id="logo-with-text-white-on-black" stroke="none" stroke-width="1" fill="none" fill-rule="evenodd">
        <rect id="Rectangle" fill="#000000" x="0" y="0" width="1024" height="1024"></rect>
        <g id="Page-1" transform="translate(52.000000, 440.000000)">
            <path d="M222.698071,50.9210213 C221.778071,50.9210213 221.014667,51.6909504 221.014667,52.6044255 L221.014667,87.8123688 C221.014667,88.7323688 221.778071,89.5022979 222.698071,89.5022979 L267.706298,89.5022979 L267.706298,97.7561986 L222.698071,97.7561986 C217.191121,97.7561986 212.747716,93.325844 212.747716,87.8123688 L212.747716,52.6044255 C212.747716,47.0974752 217.191121,42.6605957 222.698071,42.6605957 L267.706298,42.6605957 L267.706298,50.9210213 L222.698071,50.9210213" id="Fill-1" fill="#FEFEFE"></path>
            <polygon id="Fill-3" fill="#FEFEFE" points="288.764511 48.3972199 297.031461 42.6619007 297.031461 97.7575035 288.764511 97.7575035"></polygon>
            <polygon id="Fill-5" fill="#FEFEFE" points="370.895716 42.6592908 370.895716 50.9197163 347.478128 50.9197163 347.478128 97.7548936 339.211177 97.7548936 339.211177 50.9197163 315.787064 50.9197163 315.787064 42.6592908"></polygon>
            <polygon id="Fill-7" fill="#FEFEFE" points="446.300482 42.6592908 420.886298 77.097305 420.886298 97.7548936 412.619348 97.7548936 412.619348 77.097305 387.211688 42.6592908 396.933674 42.6592908 416.756085 67.7602837 436.500199 42.6592908"></polygon>
            <path d="M545.131972,89.4996879 C546.051972,89.4996879 546.815376,88.7362837 546.815376,87.8162837 L546.815376,52.6083404 C546.815376,51.6883404 546.051972,50.9184113 545.131972,50.9184113 L509.924028,50.9184113 C509.004028,50.9184113 508.240624,51.6883404 508.240624,52.6083404 L508.240624,87.8162837 C508.240624,88.7362837 509.004028,89.4996879 509.924028,89.4996879 L545.131972,89.4996879 Z M545.131972,42.6579858 C550.638922,42.6579858 555.082326,47.0948652 555.082326,52.6083404 L555.082326,87.8162837 C555.082326,93.323234 550.638922,97.7601135 545.131972,97.7601135 L509.924028,97.7601135 C504.410553,97.7601135 499.973674,93.323234 499.973674,87.8162837 L499.973674,52.6083404 C499.973674,47.0948652 504.410553,42.6579858 509.924028,42.6579858 L545.131972,42.6579858 Z" id="Fill-9" fill="#FEFEFE"></path>
            <polygon id="Fill-11" fill="#FEFEFE" points="627.195319 42.6592908 627.195319 50.9197163 584.940567 50.9197163 584.940567 66.0768794 618.921844 66.0768794 618.921844 74.3438298 584.940567 74.3438298 584.940567 97.7548936 576.673617 97.7548936 576.673617 42.6592908"></polygon>
            <polygon id="Fill-13" fill="#FEFEFE" points="679.715574 42.6592908 734.824227 42.6592908 734.824227 52.4530496 690.736 89.5009929 734.824227 89.5009929 734.824227 97.7548936 679.715574 97.7548936 679.715574 87.9676596 723.803801 50.9197163 679.715574 50.9197163"></polygon>
            <polygon id="Fill-15" fill="#FEFEFE" points="756.038383 48.1427518 764.305333 41.2721135 764.305333 97.7575035 756.038383 97.7575035"></polygon>
            <path d="M830.821986,89.4996879 C831.741986,89.4996879 832.50539,88.7362837 832.50539,87.8162837 L832.50539,52.6083404 C832.50539,51.6883404 831.741986,50.9184113 830.821986,50.9184113 L795.614043,50.9184113 C794.694043,50.9184113 793.930638,51.6883404 793.930638,52.6083404 L793.930638,87.8162837 C793.930638,88.7362837 794.694043,89.4996879 795.614043,89.4996879 L830.821986,89.4996879 Z M830.821986,42.6579858 C836.335461,42.6579858 840.77234,47.0948652 840.77234,52.6083404 L840.77234,87.8162837 C840.77234,93.323234 836.335461,97.7601135 830.821986,97.7601135 L795.614043,97.7601135 C790.107092,97.7601135 785.663688,93.323234 785.663688,87.8162837 L785.663688,52.6083404 C785.663688,47.0948652 790.107092,42.6579858 795.614043,42.6579858 L830.821986,42.6579858 Z" id="Fill-17" fill="#FEFEFE"></path>
            <g id="Group-21" transform="translate(861.276596, 41.174894)">
                <mask id="mask-2" fill="white">
                    <use xlink:href="#path-1"></use>
                </mask>
                <g id="Clip-20"></g>
                <polygon id="Fill-19" fill="#FEFEFE" mask="url(#mask-2)" points="47.7825816 1.48439716 56.0495319 1.48439716 56.0495319 56.58 46.255773 56.58 9.20782979 12.5048227 9.20782979 56.58 0.940879433 56.58 0.940879433 1.48439716 10.7346383 1.48439716 47.7825816 45.5660993"></polygon>
            </g>
            <polygon id="Fill-22" fill="#FEFEFE" points="157.67234 99.6242553 137.960851 119.335745 98.5443972 119.335745 137.960851 79.912766"></polygon>
            <polygon id="Fill-24" fill="#FEFEFE" points="118.259149 60.2012766 100.139716 40.4897872 118.259149 20.7782979 98.5476596 1.06680851 78.8361702 20.7782979 60.2012766 -0.00326241135 39.4197163 20.7782979 98.5476596 79.912766"></polygon>
            <g id="Group-28" transform="translate(0.000000, 34.650071)">
                <mask id="mask-4" fill="white">
                    <use xlink:href="#path-3"></use>
                </mask>
                <g id="Clip-27"></g>
                <polygon id="Fill-26" fill="#FEFEFE" mask="url(#mask-4)" points="19.708227 5.83971631 78.8361702 64.9741844 39.4197163 104.397163 -0.00326241135 104.397163 39.4197163 64.9741844 -0.00326241135 25.5512057"></polygon>
            </g>
        </g>
    </g>
</svg>