<?xml version="1.0" encoding="UTF-8"?>
<svg width="1024px" height="1024px" viewBox="0 0 1024 1024" version="1.1" xmlns="http://www.w3.org/2000/svg" xmlns:xlink="http://www.w3.org/1999/xlink">
    <!-- Generator: Sketch 49.3 (51167) - http://www.bohemiancoding.com/sketch -->
    <title>logo-with-text-dark-blue-on-white</title>
    <desc>Created with Sketch.</desc>
    <defs>
        <polygon id="path-1" points="0.940879433 1.49744681 56.048227 1.49744681 56.048227 56.5995745 0.940879433 56.5995745"></polygon>
        <polygon id="path-3" points="0.270780142 4.5151773 79.1102128 4.5151773 79.1102128 84.4305532 0.270780142 84.4305532"></polygon>
        <polygon id="path-5" points="0 5.85602837 78.8361702 5.85602837 78.8361702 104.397163 0 104.397163"></polygon>
    </defs>
    <g id="logo-with-text-dark-blue-on-white" stroke="none" stroke-width="1" fill="none" fill-rule="evenodd">
        <rect id="Rectangle" fill="#FFFFFF" x="0" y="0" width="1024" height="1024"></rect>
        <g id="Page-1" transform="translate(52.000000, 437.000000)">
            <path d="M222.698071,57.4360567 C221.778071,57.4360567 221.014667,58.2190355 221.014667,59.1325106 L221.014667,94.3339291 C221.014667,95.2669787 221.778071,96.0238582 222.698071,96.0238582 L267.706298,96.0238582 L267.706298,104.284284 L222.698071,104.284284 C217.191121,104.284284 212.747716,99.8539291 212.747716,94.3339291 L212.747716,59.1325106 C212.747716,53.6125106 217.191121,49.1756312 222.698071,49.1756312 L267.706298,49.1756312 L267.706298,57.4360567 L222.698071,57.4360567" id="Fill-1" fill="#191C48"></path>
            <polygon id="Fill-3" fill="#191C48" points="288.764511 54.9259574 297.031461 49.1775887 297.031461 104.279716 288.764511 104.279716"></polygon>
            <polygon id="Fill-5" fill="#191C48" points="370.895716 49.1782411 370.895716 57.4386667 347.478128 57.4386667 347.478128 104.280369 339.211177 104.280369 339.211177 57.4386667 315.787064 57.4386667 315.787064 49.1782411"></polygon>
            <polygon id="Fill-7" fill="#191C48" points="446.300482 49.1782411 420.886298 83.6162553 420.886298 104.280369 412.619348 104.280369 412.619348 83.6162553 387.211688 49.1782411 396.933674 49.1782411 416.756085 74.279234 436.500199 49.1782411"></polygon>
            <path d="M545.131972,96.0245106 C546.051972,96.0245106 546.815376,95.2676312 546.815376,94.3345816 L546.815376,59.1331631 C546.815376,58.2196879 546.051972,57.4367092 545.131972,57.4367092 L509.924028,57.4367092 C509.004028,57.4367092 508.240624,58.2196879 508.240624,59.1331631 L508.240624,94.3345816 C508.240624,95.2676312 509.004028,96.0245106 509.924028,96.0245106 L545.131972,96.0245106 Z M545.131972,49.1762837 C550.638922,49.1762837 555.082326,53.6131631 555.082326,59.1331631 L555.082326,94.3345816 C555.082326,99.8545816 550.638922,104.284936 545.131972,104.284936 L509.924028,104.284936 C504.410553,104.284936 499.973674,99.8545816 499.973674,94.3345816 L499.973674,59.1331631 C499.973674,53.6131631 504.410553,49.1762837 509.924028,49.1762837 L545.131972,49.1762837 Z" id="Fill-9" fill="#191C48"></path>
            <polygon id="Fill-11" fill="#191C48" points="627.195319 49.1782411 627.195319 57.4386667 584.940567 57.4386667 584.940567 72.6023546 618.921844 72.6023546 618.921844 80.8562553 584.940567 80.8562553 584.940567 104.280369 576.673617 104.280369 576.673617 49.1782411"></polygon>
            <polygon id="Fill-13" fill="#191C48" points="679.715574 49.1782411 734.824227 49.1782411 734.824227 58.9785248 690.736 96.0264681 734.824227 96.0264681 734.824227 104.280369 679.715574 104.280369 679.715574 94.4800851 723.803801 57.4386667 679.715574 57.4386667"></polygon>
            <polygon id="Fill-15" fill="#191C48" points="756.038383 54.6577872 764.305333 47.7871489 764.305333 104.279064 756.038383 104.279064"></polygon>
            <path d="M830.821986,96.0245106 C831.741986,96.0245106 832.50539,95.2676312 832.50539,94.3345816 L832.50539,59.1331631 C832.50539,58.2196879 831.741986,57.4367092 830.821986,57.4367092 L795.614043,57.4367092 C794.694043,57.4367092 793.930638,58.2196879 793.930638,59.1331631 L793.930638,94.3345816 C793.930638,95.2676312 794.694043,96.0245106 795.614043,96.0245106 L830.821986,96.0245106 Z M830.821986,49.1762837 C836.335461,49.1762837 840.77234,53.6131631 840.77234,59.1331631 L840.77234,94.3345816 C840.77234,99.8545816 836.335461,104.284936 830.821986,104.284936 L795.614043,104.284936 C790.107092,104.284936 785.663688,99.8545816 785.663688,94.3345816 L785.663688,59.1331631 C785.663688,53.6131631 790.107092,49.1762837 795.614043,49.1762837 L830.821986,49.1762837 Z" id="Fill-17" fill="#191C48"></path>
            <g id="Group-21" transform="translate(861.276596, 47.680794)">
                <mask id="mask-2" fill="white">
                    <use xlink:href="#path-1"></use>
                </mask>
                <g id="Clip-20"></g>
                <polygon id="Fill-19" fill="#191C48" mask="url(#mask-2)" points="47.7825816 1.49744681 56.0495319 1.49744681 56.0495319 56.5995745 46.255773 56.5995745 9.20782979 12.5113475 9.20782979 56.5995745 0.940879433 56.5995745 0.940879433 1.49744681 10.7346383 1.49744681 47.7825816 45.5856738"></polygon>
            </g>
            <polygon id="Fill-22" fill="#191C48" points="157.67234 106.149078 137.960851 125.847518 98.5443972 125.847518 137.960851 86.4375887"></polygon>
            <g id="Group-26" transform="translate(39.148936, 2.007035)">
                <mask id="mask-4" fill="white">
                    <use xlink:href="#path-3"></use>
                </mask>
                <g id="Clip-25"></g>
                <polygon id="Fill-24" fill="#191C48" mask="url(#mask-4)" points="79.1102128 64.7190638 60.9907801 45.0075745 79.1102128 25.2895603 59.3987234 5.58459574 39.687234 25.2895603 21.0523404 4.51452482 0.270780142 25.2895603 59.3987234 84.4305532"></polygon>
            </g>
            <g id="Group-29" transform="translate(0.000000, 41.155972)">
                <mask id="mask-6" fill="white">
                    <use xlink:href="#path-5"></use>
                </mask>
                <g id="Clip-28"></g>
                <polygon id="Fill-27" fill="#191C48" mask="url(#mask-6)" points="19.708227 5.85602837 78.8361702 64.9904965 39.4197163 104.400426 -0.00326241135 104.400426 39.4197163 64.9904965 -0.00326241135 25.5675177"></polygon>
            </g>
        </g>
    </g>
</svg>