<?xml version="1.0" encoding="UTF-8"?>
<svg width="1024px" height="1024px" viewBox="0 0 1024 1024" version="1.1" xmlns="http://www.w3.org/2000/svg" xmlns:xlink="http://www.w3.org/1999/xlink">
    <!-- Generator: Sketch 49.3 (51167) - http://www.bohemiancoding.com/sketch -->
    <title>neo-logo-with-text</title>
    <desc>Created with Sketch.</desc>
    <defs>
        <polyline id="path-1" points="0.0261516854 0.311686192 18.2800281 0.311686192 116.460927 156.454552 116.958183 156.454552 116.958183 0.311686192 132.988792 0.211514644 132.988792 177.849184 112.762331 177.849184 16.5502809 24.4087155 16.0571348 24.4087155 16.0571348 177.650331 0.0261516854 177.849184 0.0261516854 0.311686192"></polyline>
        <linearGradient x1="50.4438039%" y1="-88.3742186%" x2="50.4438039%" y2="217.581851%" id="linearGradient-3">
            <stop stop-color="#60BB46" offset="0%"></stop>
            <stop stop-color="#60BB46" offset="22.78%"></stop>
            <stop stop-color="#60BB46" offset="41.73%"></stop>
            <stop stop-color="#44B649" offset="60.53%"></stop>
            <stop stop-color="#28B34B" offset="77.74%"></stop>
            <stop stop-color="#0DB14B" offset="99.43%"></stop>
            <stop stop-color="#0DB14B" offset="100%"></stop>
        </linearGradient>
        <polyline id="path-4" points="0.229863946 177.849184 0.229863946 0.311686192 105.251735 0.311686192 98.5597279 15.0674393 16.1386735 15.0674393 16.1386735 78.7538285 101.822313 78.7538285 95.1303061 93.5095816 16.1386735 93.5095816 16.1386735 163.093431 108.922143 163.093431 102.230136 177.849184 0.229863946 177.849184"></polyline>
        <linearGradient x1="50.3738834%" y1="-88.4803192%" x2="50.3738834%" y2="217.647737%" id="linearGradient-6">
            <stop stop-color="#60BB46" offset="0%"></stop>
            <stop stop-color="#60BB46" offset="22.78%"></stop>
            <stop stop-color="#60BB46" offset="41.73%"></stop>
            <stop stop-color="#44B649" offset="60.53%"></stop>
            <stop stop-color="#28B34B" offset="77.74%"></stop>
            <stop stop-color="#0DB14B" offset="99.43%"></stop>
            <stop stop-color="#0DB14B" offset="100%"></stop>
        </linearGradient>
        <path d="M158.776056,93.0825422 C158.776056,106.892482 157.05169,119.515084 153.599225,130.937651 C150.150493,142.368807 145.055401,152.14912 138.322162,160.28606 C131.581458,168.427482 123.284718,174.716 113.423359,179.151988 C103.570211,183.592084 92.2345563,185.814747 79.4178873,185.814747 C66.5967394,185.814747 55.261831,183.592084 45.4045775,179.151988 C35.5473239,174.716 27.2464789,168.427482 20.5165986,160.28606 C13.7758944,152.14912 8.68490845,142.368807 5.23244366,130.937651 C1.77997887,119.515084 0.0559859155,106.892108 0.0559859155,93.0825422 C0.0559859155,79.269241 1.77997887,66.6552289 5.23244366,55.2233253 C8.68490845,43.800759 13.7762676,34.0163373 20.5165986,25.8752892 C27.2461056,17.7383494 35.5473239,11.4498313 45.4045775,7.00936145 C55.261831,2.56889157 66.5967394,0.351084337 79.4178873,0.351084337 C92.2349296,0.351084337 103.570211,2.56889157 113.423359,7.00936145 C123.284718,11.4498313 131.581458,17.7383494 138.322162,25.8752892 C145.055401,34.0163373 150.15012,43.800759 153.599225,55.2233253 C157.05169,66.6552289 158.776056,79.2688675 158.776056,93.0825422 Z M17.3108451,93.0825422 C17.3108451,102.785542 18.4604225,112.318229 20.7633099,121.692181 C23.0587324,131.061277 26.7127465,139.40812 31.7253521,146.723747 C36.7379577,154.039 43.1427465,159.916675 50.9509155,164.357145 C58.7553521,168.797614 68.2393662,171.015422 79.4182606,171.015422 C90.4209859,171.015422 99.8717817,168.797614 107.758331,164.357145 C115.648613,159.916675 122.090725,154.039 127.107063,146.723747 C132.115937,139.40812 135.773683,131.061277 138.07657,121.692181 C140.371993,112.318229 141.52157,102.785542 141.52157,93.0825422 C141.52157,83.3806627 140.371993,73.8472289 138.07657,64.4736506 C135.773683,55.1004458 132.115937,46.7580843 127.107063,39.4424578 C122.091099,32.1272048 115.648613,26.2446747 107.758331,21.8045783 C99.8717817,17.3685904 90.4213592,15.1463012 79.4182606,15.1463012 C68.2397394,15.1463012 58.7557254,17.3685904 50.9509155,21.8045783 C43.1427465,26.2446747 36.7379577,32.1272048 31.7253521,39.4424578 C26.7127465,46.7580843 23.0587324,55.1004458 20.7633099,64.4736506 C18.4604225,73.8472289 17.3108451,83.3806627 17.3108451,93.0825422 Z" id="path-7"></path>
        <linearGradient x1="50.0917745%" y1="-82.958088%" x2="50.0917745%" y2="210.959715%" id="linearGradient-9">
            <stop stop-color="#60BB46" offset="0%"></stop>
            <stop stop-color="#60BB46" offset="22.78%"></stop>
            <stop stop-color="#60BB46" offset="41.73%"></stop>
            <stop stop-color="#44B649" offset="60.53%"></stop>
            <stop stop-color="#28B34B" offset="77.74%"></stop>
            <stop stop-color="#0DB14B" offset="99.43%"></stop>
            <stop stop-color="#0DB14B" offset="100%"></stop>
        </linearGradient>
        <path d="M12.5283721,5.05955882 C12.1525581,4.24963235 11.5981395,3.60955882 10.8613953,3.13713235 C10.1283721,2.66507353 9.30232558,2.42830882 8.37953488,2.42830882 C7.86604651,2.42830882 7.37116279,2.52132353 6.89488372,2.70661765 C6.41488372,2.89264706 5.98697674,3.15404412 5.61488372,3.49044118 C5.23906977,3.82794118 4.93023256,4.21617647 4.69209302,4.65477941 C4.45395349,5.09264706 4.33488372,5.56507353 4.33488372,6.07095588 C4.33488372,7.01580882 4.61395349,7.75036765 5.17953488,8.27316176 C5.74139535,8.79558824 6.44837209,9.24301471 7.30418605,9.61360294 C8.15627907,9.98492647 9.08651163,10.3393382 10.0948837,10.6768382 C11.1032558,11.0132353 12.0334884,11.4441176 12.8855814,11.9669118 C13.7376744,12.4904412 14.4483721,13.1735294 15.0102326,14.0158088 C15.572093,14.8591912 15.8548837,15.9897059 15.8548837,17.4066176 C15.8548837,18.4867647 15.6576744,19.4724265 15.2669767,20.3661765 C14.872186,21.2606618 14.3289302,22.0286765 13.6297674,22.6691176 C12.9265116,23.3095588 12.1190698,23.8077206 11.1962791,24.1610294 C10.2734884,24.5150735 9.28372093,24.6926471 8.22325581,24.6926471 C6.24372093,24.6926471 4.51348837,24.1455882 3.02883721,23.0481618 C1.54418605,21.9525735 0.561860465,20.4422794 0.0818604651,18.5194853 L2.33711628,17.8117647 C2.77953488,19.2283088 3.47944186,20.3757353 4.43572093,21.2511029 C5.392,22.1297794 6.65711628,22.5669118 8.22362791,22.5669118 C9.72688372,22.5669118 10.992,22.0610294 12.0152558,21.0492647 C13.0385116,20.0378676 13.552,18.7897059 13.552,17.3040441 C13.552,16.5959559 13.4217674,15.9897059 13.1687442,15.4827206 C12.912,14.9768382 12.5696744,14.5555147 12.1454884,14.21875 C11.7175814,13.8808824 11.2226977,13.5933824 10.6571163,13.3584559 C10.0952558,13.1213235 9.52223256,12.9025735 8.94176744,12.7 C8.12316279,12.3959559 7.30455814,12.0761029 6.48223256,11.7386029 C5.66734884,11.4022059 4.92316279,10.9882353 4.25711628,10.4992647 C3.59106977,10.0102941 3.05525581,9.41911765 2.64223256,8.72867647 C2.23293023,8.03639706 2.02827907,7.20220588 2.02827907,6.22316176 C2.02827907,5.34742647 2.20688372,4.54632353 2.56781395,3.82058824 C2.92502326,3.09485294 3.39386047,2.47132353 3.97432558,1.94742647 C4.5547907,1.425 5.23944186,1.02022059 6.02455814,0.734191176 C6.80967442,0.447058824 7.62827907,0.303308824 8.48037209,0.303308824 C9.6747907,0.303308824 10.8543256,0.657720588 12.0152558,1.36691176 C13.176186,2.07426471 14.0133953,2.96801471 14.5231628,4.04852941 L12.5283721,5.05955882" id="path-10"></path>
        <linearGradient x1="-0.00283085633%" y1="49.9451452%" x2="99.9962255%" y2="49.9451452%" id="linearGradient-12">
            <stop stop-color="#60BB46" offset="0%"></stop>
            <stop stop-color="#60BB46" offset="22.78%"></stop>
            <stop stop-color="#60BB46" offset="41.73%"></stop>
            <stop stop-color="#44B649" offset="60.53%"></stop>
            <stop stop-color="#28B34B" offset="77.74%"></stop>
            <stop stop-color="#0DB14B" offset="99.43%"></stop>
            <stop stop-color="#0DB14B" offset="100%"></stop>
        </linearGradient>
        <path d="M2.32734177,3.70290909 L2.43012658,3.70290909 C2.96607595,2.636 3.76632911,1.80181818 4.82721519,1.20036364 C5.88810127,0.600727273 7.04039241,0.299636364 8.28886076,0.299636364 C9.80493671,0.299636364 11.1264557,0.658545455 12.2570886,1.37563636 C13.3840506,2.09345455 14.2507468,3.13636364 14.8560759,4.50436364 C15.4948101,3.10290909 16.4162025,2.05127273 17.6092405,1.35163636 C18.8063165,0.650181818 20.1605063,0.299636364 21.6765823,0.299636364 C23.1926582,0.299636364 24.4150633,0.533818182 25.3401266,1.00072727 C26.2651899,1.468 26.9993671,2.11927273 27.5386203,2.952 C28.0786076,3.78618182 28.4379873,4.75345455 28.6255696,5.85490909 C28.8091139,6.95527273 28.9008861,8.14036364 28.9008861,9.40836364 L28.9008861,23.9218182 L26.6286076,23.9218182 L26.6286076,9.10763636 C26.6286076,8.20654545 26.5772152,7.35563636 26.4781013,6.55490909 C26.3753165,5.75527273 26.1480886,5.04654545 25.7953165,4.42763636 C25.4432785,3.81127273 24.9363291,3.31854545 24.2792405,2.95127273 C23.6221519,2.58545455 22.7374684,2.40109091 21.6288608,2.40109091 C20.4137975,2.40109091 19.4189873,2.64254545 18.6481013,3.12618182 C17.8698734,3.60981818 17.2568354,4.236 16.8016456,5.00327273 C16.3468228,5.77090909 16.0344304,6.64763636 15.8696076,7.63054545 C15.7003797,8.61563636 15.6163165,9.60763636 15.6163165,10.6090909 L15.6163165,23.9210909 L13.344038,23.9210909 L13.344038,9.65636364 C13.344038,8.756 13.2816329,7.87309091 13.1645316,7.004 C13.0470633,6.13818182 12.8011139,5.36109091 12.4340253,4.67818182 C12.0592278,3.99381818 11.5416329,3.44327273 10.8661899,3.02654545 C10.1907468,2.60909091 9.28403797,2.40072727 8.13872152,2.40072727 C6.92365823,2.40072727 5.93986076,2.68472727 5.18365823,3.25163636 C4.42378481,3.81963636 3.83644304,4.53563636 3.41429114,5.40363636 C2.99213924,6.27127273 2.70581013,7.22181818 2.5553038,8.256 C2.40479747,9.29090909 2.32770886,10.2752727 2.32770886,11.2090909 L2.32770886,23.9210909 L0.0554303797,23.9210909 L0.0554303797,0.8 L2.32770886,0.8 L2.32770886,3.70290909" id="path-13"></path>
        <linearGradient x1="-0.0318147111%" y1="50.0166251%" x2="99.9762026%" y2="50.0166251%" id="linearGradient-15">
            <stop stop-color="#60BB46" offset="0%"></stop>
            <stop stop-color="#60BB46" offset="22.78%"></stop>
            <stop stop-color="#60BB46" offset="41.73%"></stop>
            <stop stop-color="#44B649" offset="60.53%"></stop>
            <stop stop-color="#28B34B" offset="77.74%"></stop>
            <stop stop-color="#0DB14B" offset="99.43%"></stop>
            <stop stop-color="#0DB14B" offset="100%"></stop>
        </linearGradient>
        <path d="M23.7638095,24.1860294 L21.4057143,24.1860294 L21.4057143,19.9867647 L21.2994286,19.9867647 C20.8460952,20.7283088 20.2784762,21.3955882 19.5961905,21.9856618 C18.9146667,22.5753676 18.1638095,23.0724265 17.3409524,23.4772059 C16.5222857,23.8823529 15.6533333,24.1863971 14.7466667,24.3882353 C13.8361905,24.5911765 12.9451429,24.6922794 12.072,24.6922794 C10.2171429,24.6922794 8.55961905,24.3713235 7.08952381,23.73125 C5.62247619,23.0904412 4.37333333,22.2136029 3.34057143,21.0996324 C2.31238095,19.9875 1.51619048,18.6790441 0.955809524,17.1786765 C0.395809524,15.6779412 0.118095238,14.0665441 0.118095238,12.3455882 C0.118095238,10.625 0.395809524,9.03125 0.955809524,7.56433824 C1.51619048,6.09742647 2.30057143,4.82463235 3.31771429,3.74375 C4.33104762,2.66507353 5.56914286,1.82169118 7.04,1.21360294 C8.50666667,0.607352941 10.1481905,0.302941176 11.9657143,0.302941176 C13.8552381,0.302941176 15.6262857,0.691176471 17.2910476,1.46727941 C18.9485714,2.24301471 20.2853333,3.37279412 21.2990476,4.85661765 L21.4053333,4.85661765 L21.4053333,0.808823529 L23.7634286,0.808823529 L23.7634286,24.1860294 L23.7638095,24.1860294 Z M11.8628571,2.42830882 C10.4647619,2.42830882 9.18857143,2.70661765 8.03428571,3.26286765 C6.88038095,3.82022059 5.89333333,4.56139706 5.07428571,5.48897059 C4.25142857,6.41801471 3.61142857,7.47977941 3.15809524,8.67794118 C2.7047619,9.87463235 2.47619048,11.0981618 2.47619048,12.3455882 C2.47619048,13.6963235 2.69333333,14.9860294 3.13142857,16.2176471 C3.56952381,17.4492647 4.20952381,18.5371324 5.04761905,19.4801471 C5.88571429,20.4253676 6.88761905,21.1753676 8.06095238,21.7323529 C9.23047619,22.2886029 10.552381,22.5669118 12.0190476,22.5669118 C13.5580952,22.5669118 14.9219048,22.2886029 16.1066667,21.7323529 C17.2990476,21.1753676 18.2929524,20.4165441 19.0971429,19.4555147 C19.9009524,18.4941176 20.5142857,17.3805147 20.9333333,16.1154412 C21.352381,14.85 21.5615238,13.5099265 21.5615238,12.0933824 C21.5615238,10.7441176 21.3329524,9.47941176 20.88,8.29816176 C20.4266667,7.11838235 19.7714286,6.09779412 18.9142857,5.2375 C18.0571429,4.37720588 17.0358095,3.69448529 15.8472381,3.18860294 C14.6590476,2.68198529 13.3295238,2.42830882 11.8628571,2.42830882 Z" id="path-16"></path>
        <linearGradient x1="-0.0448000947%" y1="50.0162803%" x2="99.9533836%" y2="50.0162803%" id="linearGradient-18">
            <stop stop-color="#60BB46" offset="0%"></stop>
            <stop stop-color="#60BB46" offset="22.78%"></stop>
            <stop stop-color="#60BB46" offset="41.73%"></stop>
            <stop stop-color="#44B649" offset="60.53%"></stop>
            <stop stop-color="#28B34B" offset="77.74%"></stop>
            <stop stop-color="#0DB14B" offset="99.43%"></stop>
            <stop stop-color="#0DB14B" offset="100%"></stop>
        </linearGradient>
        <path d="M2.49071429,3.80290909 L2.59717857,3.80290909 C3.10396429,2.73563636 3.79539286,1.88472727 4.67932143,1.25018182 C5.56325,0.616727273 6.67110714,0.299636364 8.00682143,0.299636364 C8.50967857,0.299636364 8.96932143,0.349454545 9.38575,0.449090909 C9.79825,0.549818182 10.2225357,0.683636364 10.6546786,0.849818182 L9.35825,2.85236364 C9.06753571,2.68618182 8.78860714,2.56981818 8.51714286,2.50181818 C8.25,2.43527273 7.95182143,2.40218182 7.62535714,2.40218182 C6.25428571,2.40218182 5.22107143,2.75272727 4.51785714,3.45272727 C3.81464286,4.15418182 3.31178571,5.00472727 3.00535714,6.00509091 C2.69892857,7.00581818 2.53392857,8.06654545 2.51821429,9.18363636 C2.49857143,10.3021818 2.49071429,11.2781818 2.49071429,12.1109091 L2.49071429,23.9225455 L0.0593214286,23.9225455 L0.0593214286,0.8 L2.49071429,0.8 L2.49071429,3.80290909" id="path-19"></path>
        <linearGradient x1="0.0229885057%" y1="49.9858379%" x2="100.038561%" y2="49.9858379%" id="linearGradient-21">
            <stop stop-color="#60BB46" offset="0%"></stop>
            <stop stop-color="#60BB46" offset="22.78%"></stop>
            <stop stop-color="#60BB46" offset="41.73%"></stop>
            <stop stop-color="#44B649" offset="60.53%"></stop>
            <stop stop-color="#28B34B" offset="77.74%"></stop>
            <stop stop-color="#0DB14B" offset="99.43%"></stop>
            <stop stop-color="#0DB14B" offset="100%"></stop>
        </linearGradient>
        <polyline id="path-22" points="4.8996 31.9212874 2.6676 31.9212874 2.6676 10.6596782 0.144 10.6596782 0.144 8.53333333 2.6676 8.53333333 2.6676 0.180229885 4.8996 0.180229885 4.8996 8.53333333 8.9136 8.53333333 8.9136 10.6596782 4.8996 10.6596782 4.8996 31.9212874"></polyline>
        <linearGradient x1="0.0254526048%" y1="50.0020858%" x2="100.029147%" y2="50.0020858%" id="linearGradient-24">
            <stop stop-color="#60BB46" offset="0%"></stop>
            <stop stop-color="#60BB46" offset="22.78%"></stop>
            <stop stop-color="#60BB46" offset="41.73%"></stop>
            <stop stop-color="#44B649" offset="60.53%"></stop>
            <stop stop-color="#28B34B" offset="77.74%"></stop>
            <stop stop-color="#0DB14B" offset="99.43%"></stop>
            <stop stop-color="#0DB14B" offset="100%"></stop>
        </linearGradient>
        <path d="M2.33709677,12.7 C2.30370968,14.1849265 2.51516129,15.5330882 2.97516129,16.7474265 C3.43516129,17.9625 4.09214516,18.9996324 4.94166129,19.8599265 C5.79117742,20.7205882 6.80391935,21.3867647 7.97951613,21.8591912 C9.1551129,22.3316176 10.4204839,22.5669118 11.7819355,22.5669118 C13.6219355,22.5669118 15.2541935,22.0786765 16.6865,21.0996324 C18.1147258,20.1220588 19.2535968,18.8400735 20.1027419,17.2536765 L22.0466129,18.3676471 C20.9563387,20.3908088 19.5091935,21.9522059 17.7066613,23.0477941 C15.9000484,24.1448529 13.8259677,24.6922794 11.4777419,24.6922794 C9.7416129,24.6922794 8.165,24.3632353 6.75569355,23.7047794 C5.34230645,23.0477941 4.13295161,22.1617647 3.12762903,21.0488971 C2.1263871,19.9349265 1.3581129,18.6375 0.831709677,17.1525735 C0.304935484,15.66875 0.0415483871,14.0988971 0.0415483871,12.4474265 C0.0415483871,10.8279412 0.311983871,9.28419118 0.857677419,7.81691176 C1.403,6.34889706 2.17832258,5.05919118 3.17993548,3.94558824 C4.18525806,2.83345588 5.3831129,1.94669118 6.78203226,1.28970588 C8.17687097,0.63125 9.74198387,0.302573529 11.4781129,0.302573529 C13.248,0.302573529 14.8394516,0.63125 16.2487581,1.28970588 C17.6625161,1.94669118 18.8533226,2.84227941 19.8248871,3.97132353 C20.7971935,5.10220588 21.5350484,6.41764706 22.0469839,7.91838235 C22.5552097,9.41875 22.8115484,11.0125 22.8115484,12.6996324 L2.33709677,12.6996324 L2.33709677,12.7 Z M20.5145161,10.5742647 C20.3772581,9.49558824 20.0619355,8.46727941 19.5685484,7.48786765 C19.0751613,6.50992647 18.4296774,5.64154412 17.6283871,4.88235294 C16.8274677,4.12316176 15.9185968,3.52536765 14.8984355,3.08492647 C13.8782742,2.64816176 12.7542419,2.42830882 11.5263387,2.42830882 C10.3355323,2.42830882 9.20408065,2.64816176 8.13198387,3.08492647 C7.0598871,3.525 6.11762903,4.11507353 5.29779032,4.85625 C4.48166129,5.59852941 3.80983871,6.45882353 3.28306452,7.43676471 C2.75258065,8.41617647 2.44096774,9.46176471 2.33709677,10.5738971 L20.5145161,10.5738971 L20.5145161,10.5742647 Z" id="path-25"></path>
        <linearGradient x1="-0.0227634106%" y1="50.0088938%" x2="99.9801376%" y2="50.0088938%" id="linearGradient-27">
            <stop stop-color="#60BB46" offset="0%"></stop>
            <stop stop-color="#60BB46" offset="22.78%"></stop>
            <stop stop-color="#60BB46" offset="41.73%"></stop>
            <stop stop-color="#44B649" offset="60.53%"></stop>
            <stop stop-color="#28B34B" offset="77.74%"></stop>
            <stop stop-color="#0DB14B" offset="99.43%"></stop>
            <stop stop-color="#0DB14B" offset="100%"></stop>
        </linearGradient>
        <path d="M20.5505263,6.22279412 C19.4375263,5.00919118 18.2036842,4.07242647 16.8515789,3.41544118 C15.4994737,2.75698529 13.9775263,2.42830882 12.2864737,2.42830882 C10.9012105,2.42830882 9.61542105,2.69852941 8.43278947,3.2375 C7.25015789,3.77757353 6.22631579,4.51066176 5.36789474,5.43823529 C4.50578947,6.36691176 3.82752632,7.43676471 3.33789474,8.65183824 C2.84789474,9.86654412 2.60105263,11.1316176 2.60105263,12.4470588 C2.60105263,13.7610294 2.84789474,15.0356618 3.33789474,16.2672794 C3.82752632,17.4985294 4.50578947,18.5775735 5.36789474,19.5051471 C6.22631579,20.4327206 7.24315789,21.175 8.40736842,21.7319853 C9.57526316,22.2882353 10.85,22.5665441 12.2352632,22.5665441 C13.9263158,22.5665441 15.5142105,22.1871324 17.0026316,21.4279412 C18.4906842,20.6698529 19.7731579,19.6492647 20.8563158,18.3672794 L20.8563158,21.4536765 C19.6736842,22.4992647 18.3547368,23.3011029 16.9031579,23.8573529 C15.4478947,24.4139706 13.9263158,24.6922794 12.3384211,24.6922794 C10.6142105,24.6922794 9.01894737,24.3713235 7.54526316,23.73125 C6.07526316,23.0904412 4.80752632,22.2216912 3.74315789,21.1257353 C2.67805263,20.0301471 1.84210526,18.7389706 1.23384211,17.2536765 C0.626315789,15.7698529 0.320526316,14.1672794 0.320526316,12.4481618 C0.320526316,10.7610294 0.626315789,9.17683824 1.23384211,7.69154412 C1.84173684,6.20808824 2.68542105,4.91691176 3.76894737,3.82095588 C4.85173684,2.72573529 6.12647368,1.86544118 7.59684211,1.24044118 C9.06684211,0.616911765 10.6657895,0.303676471 12.39,0.303676471 C13.9115789,0.303676471 15.3557895,0.540441176 16.7226316,1.0125 C18.0935263,1.48492647 19.3682632,2.21066176 20.5508947,3.18860294 L20.5508947,6.22279412" id="path-28"></path>
        <linearGradient x1="0.00897021887%" y1="50.0066327%" x2="100.008073%" y2="50.0066327%" id="linearGradient-30">
            <stop stop-color="#60BB46" offset="0%"></stop>
            <stop stop-color="#60BB46" offset="22.78%"></stop>
            <stop stop-color="#60BB46" offset="41.73%"></stop>
            <stop stop-color="#44B649" offset="60.53%"></stop>
            <stop stop-color="#28B34B" offset="77.74%"></stop>
            <stop stop-color="#0DB14B" offset="99.43%"></stop>
            <stop stop-color="#0DB14B" offset="100%"></stop>
        </linearGradient>
        <path d="M12.358209,0.302941176 C14.1044776,0.302941176 15.738806,0.616176471 17.261194,1.23970588 C18.7835821,1.86433824 20.1044776,2.71580882 21.216791,3.79448529 C22.3283582,4.87463235 23.2093284,6.16397059 23.8623134,7.66433824 C24.511194,9.16654412 24.836194,10.7772059 24.836194,12.4977941 C24.836194,14.2183824 24.511194,15.8286765 23.8623134,17.3294118 C23.2093284,18.83125 22.3287313,20.1213235 21.216791,21.2 C20.1048507,22.2801471 18.7835821,23.13125 17.261194,23.75625 C15.738806,24.3794118 14.1044776,24.6915441 12.358209,24.6915441 C10.6455224,24.6915441 9.04477612,24.3705882 7.55597015,23.7305147 C6.06716418,23.0897059 4.76492537,22.2128676 3.65298507,21.0988971 C2.54141791,19.9867647 1.66044776,18.6952206 1.00746269,17.2286765 C0.358208955,15.7617647 0.0335820896,14.2018382 0.0335820896,12.5485294 C0.0335820896,10.8617647 0.347014925,9.27720588 0.981343284,7.79191176 C1.61567164,6.30845588 2.48880597,5.00955882 3.6011194,3.89522059 C4.71268657,2.78308824 6.02238806,1.90551471 7.52985075,1.26433824 C9.03731343,0.623529412 10.6455224,0.302941176 12.358209,0.302941176 Z M12.2052239,2.42830882 C10.7981343,2.42830882 9.48880597,2.69852941 8.2761194,3.2375 C7.05970149,3.77757353 6.01492537,4.51066176 5.14216418,5.43823529 C4.26865672,6.36691176 3.58619403,7.44595588 3.08992537,8.67757353 C2.59365672,9.90955882 2.34365672,11.1988971 2.34365672,12.5481618 C2.34365672,13.8639706 2.59365672,15.1290441 3.08992537,16.3422794 C3.58619403,17.5569853 4.27985075,18.6283088 5.16791045,19.5555147 C6.06007463,20.4841912 7.1011194,21.2176471 8.30223881,21.7569853 C9.5,22.2966912 10.7981343,22.5658088 12.2052239,22.5658088 C13.6421642,22.5658088 14.9925373,22.3132353 16.261194,21.8077206 C17.5261194,21.3007353 18.6231343,20.5926471 19.5485075,19.6823529 C20.4705224,18.7713235 21.1981343,17.7084559 21.7317164,16.4948529 C22.2615672,15.2801471 22.5264925,13.9647059 22.5264925,12.5481618 C22.5264925,11.0977941 22.2615672,9.75661765 21.7317164,8.525 C21.1981343,7.29485294 20.4705224,6.22242647 19.5485075,5.31176471 C18.6235075,4.40073529 17.5373134,3.69375 16.2876866,3.18786765 C15.0373134,2.68198529 13.6753731,2.42830882 12.2052239,2.42830882 Z" id="path-31"></path>
        <linearGradient x1="0.00571677875%" y1="49.9032606%" x2="100.011734%" y2="49.9032606%" id="linearGradient-33">
            <stop stop-color="#60BB46" offset="0%"></stop>
            <stop stop-color="#60BB46" offset="22.78%"></stop>
            <stop stop-color="#60BB46" offset="41.73%"></stop>
            <stop stop-color="#44B649" offset="60.53%"></stop>
            <stop stop-color="#28B34B" offset="77.74%"></stop>
            <stop stop-color="#0DB14B" offset="99.43%"></stop>
            <stop stop-color="#0DB14B" offset="100%"></stop>
        </linearGradient>
        <path d="M2.42425532,4.40290909 L2.52765957,4.40290909 C3.23234043,3.13636364 4.21659574,2.13563636 5.48080851,1.40072727 C6.7446383,0.666545455 8.16931915,0.299636364 9.7506383,0.299636364 C11.3319574,0.299636364 12.6310213,0.524727273 13.6493617,0.974545455 C14.6680851,1.42545455 15.4876596,2.06909091 16.1004255,2.90218182 C16.7170213,3.73636364 17.1455745,4.74581818 17.3948936,5.92909091 C17.640383,7.11418182 17.7625532,8.45745455 17.7625532,9.95854545 L17.7625532,23.9218182 L15.3919149,23.9218182 L15.3919149,9.95854545 C15.3919149,8.92472727 15.3382979,7.94836364 15.2310638,7.03090909 C15.1276596,6.11381818 14.8714468,5.31236364 14.4693191,4.62945455 C14.0629787,3.94436364 13.4731915,3.40218182 12.7037872,3.00181818 C11.9301702,2.60109091 10.8769787,2.40181818 9.54038298,2.40181818 C7.99314894,2.40181818 6.75574468,2.71018182 5.82548936,3.32836364 C4.89485106,3.94436364 4.18251064,4.73709091 3.68846809,5.704 C3.19825532,6.67236364 2.86544681,7.75672727 2.68889362,8.95781818 C2.51310638,10.1596364 2.42502128,11.344 2.42502128,12.5109091 L2.42502128,23.9218182 L0.0543829787,23.9218182 L0.0543829787,0.8 L2.42502128,0.8 L2.42502128,4.40290909" id="path-34"></path>
        <linearGradient x1="0.0142290971%" y1="50.0081586%" x2="100.023187%" y2="50.0081586%" id="linearGradient-36">
            <stop stop-color="#60BB46" offset="0%"></stop>
            <stop stop-color="#60BB46" offset="22.78%"></stop>
            <stop stop-color="#60BB46" offset="41.73%"></stop>
            <stop stop-color="#44B649" offset="60.53%"></stop>
            <stop stop-color="#28B34B" offset="77.74%"></stop>
            <stop stop-color="#0DB14B" offset="99.43%"></stop>
            <stop stop-color="#0DB14B" offset="100%"></stop>
        </linearGradient>
        <path d="M12.4963235,0.302941176 C14.2169118,0.302941176 15.8272059,0.616176471 17.3272059,1.23970588 C18.8272059,1.86433824 20.1286765,2.71580882 21.2246324,3.79448529 C22.3198529,4.87463235 23.1878676,6.16397059 23.83125,7.66433824 C24.4709559,9.16654412 24.7904412,10.7772059 24.7904412,12.4977941 C24.7904412,14.2183824 24.4709559,15.8286765 23.83125,17.3294118 C23.1878676,18.83125 22.3202206,20.1213235 21.2246324,21.2 C20.1290441,22.2801471 18.8272059,23.13125 17.3272059,23.75625 C15.8272059,24.3794118 14.2169118,24.6915441 12.4963235,24.6915441 C10.8088235,24.6915441 9.23161765,24.3705882 7.76470588,23.7305147 C6.29779412,23.0897059 5.01470588,22.2128676 3.91911765,21.0988971 C2.82352941,19.9867647 1.95220588,18.6952206 1.3125,17.2286765 C0.669117647,15.7617647 0.352941176,14.2018382 0.352941176,12.5485294 C0.352941176,10.8617647 0.661764706,9.27720588 1.28676471,7.79191176 C1.91176471,6.30845588 2.77205882,5.00955882 3.86764706,3.89522059 C4.96323529,2.78308824 6.25367647,1.90551471 7.73897059,1.26433824 C9.22058824,0.623529412 10.8088235,0.302941176 12.4963235,0.302941176 Z M12.3419118,2.42830882 C10.9595588,2.42830882 9.66875,2.69852941 8.47058824,3.2375 C7.27573529,3.77757353 6.24632353,4.51066176 5.38602941,5.43823529 C4.52573529,6.36691176 3.84889706,7.44595588 3.35992647,8.67757353 C2.87132353,9.90955882 2.62867647,11.1988971 2.62867647,12.5481618 C2.62867647,13.8639706 2.87132353,15.1290441 3.35992647,16.3422794 C3.84889706,17.5569853 4.53272059,18.6283088 5.41139706,19.5555147 C6.28639706,20.4841912 7.31617647,21.2176471 8.49632353,21.7569853 C9.67647059,22.2966912 10.9595588,22.5658088 12.3419118,22.5658088 C13.7606618,22.5658088 15.0915441,22.3132353 16.3419118,21.8077206 C17.5882353,21.3007353 18.6691176,20.5926471 19.5772059,19.6823529 C20.4889706,18.7713235 21.2058824,17.7084559 21.7279412,16.4948529 C22.25,15.2801471 22.5150735,13.9647059 22.5150735,12.5481618 C22.5150735,11.0977941 22.25,9.75661765 21.7279412,8.525 C21.2058824,7.29485294 20.4893382,6.22242647 19.5772059,5.31176471 C18.6691176,4.40073529 17.5955882,3.69375 16.3639706,3.18786765 C15.1323529,2.68198529 13.7941176,2.42830882 12.3419118,2.42830882 Z" id="path-37"></path>
        <linearGradient x1="0.0132390552%" y1="49.9032606%" x2="100.020761%" y2="49.9032606%" id="linearGradient-39">
            <stop stop-color="#60BB46" offset="0%"></stop>
            <stop stop-color="#60BB46" offset="22.78%"></stop>
            <stop stop-color="#60BB46" offset="41.73%"></stop>
            <stop stop-color="#44B649" offset="60.53%"></stop>
            <stop stop-color="#28B34B" offset="77.74%"></stop>
            <stop stop-color="#0DB14B" offset="99.43%"></stop>
            <stop stop-color="#0DB14B" offset="100%"></stop>
        </linearGradient>
        <path d="M2.27594937,3.70290909 L2.37506329,3.70290909 C2.91468354,2.636 3.71493671,1.80181818 4.77582278,1.20036364 C5.83707595,0.600727273 6.98936709,0.299636364 8.23379747,0.299636364 C9.75391139,0.299636364 11.0750633,0.658545455 12.2023924,1.37563636 C13.3293544,2.09345455 14.1989873,3.13636364 14.8050506,4.50436364 C15.4437848,3.10290909 16.3615063,2.05127273 17.5582152,1.35163636 C18.7512532,0.650181818 20.109481,0.299636364 21.625557,0.299636364 C23.1416329,0.299636364 24.3603671,0.533818182 25.2887342,1.00072727 C26.2141646,1.468 26.9446709,2.11927273 27.4839241,2.952 C28.0235443,3.78618182 28.386962,4.75345455 28.5705063,5.85490909 C28.7577215,6.95527273 28.8494937,8.14036364 28.8494937,9.40836364 L28.8494937,23.9218182 L26.5775823,23.9218182 L26.5775823,9.10763636 C26.5775823,8.20654545 26.5258228,7.35563636 26.4234051,6.55490909 C26.3239241,5.75527273 26.0963291,5.04654545 25.7406203,4.42763636 C25.3882152,3.81127273 24.8816329,3.31854545 24.2282152,2.95127273 C23.5711266,2.58545455 22.686443,2.40109091 21.5741646,2.40109091 C20.3627722,2.40109091 19.367962,2.64254545 18.5937722,3.12618182 C17.8192152,3.60981818 17.2025063,4.236 16.7506203,5.00327273 C16.2954304,5.77090909 15.9834051,6.64763636 15.8145443,7.63054545 C15.6456835,8.61563636 15.5612532,9.60763636 15.5612532,10.6090909 L15.5612532,23.9210909 L13.2893418,23.9210909 L13.2893418,9.65636364 C13.2893418,8.756 13.2306076,7.87309091 13.1131392,7.004 C12.992,6.13818182 12.7500886,5.36109091 12.378962,4.67818182 C12.0082025,3.99381818 11.4869367,3.44327273 10.8114937,3.02654545 C10.1397215,2.60909091 9.22897468,2.40072727 8.08365823,2.40072727 C6.87226582,2.40072727 5.88883544,2.68472727 5.12859494,3.25163636 C4.37239241,3.81963636 3.78137975,4.53563636 3.35959494,5.40363636 C2.94074684,6.27127273 2.65478481,7.22181818 2.50060759,8.256 C2.35010127,9.29090909 2.27668354,10.2752727 2.27668354,11.2090909 L2.27668354,23.9210909 L0.000734177215,23.9210909 L0.000734177215,0.8 L2.27668354,0.8 L2.27668354,3.70290909" id="path-40"></path>
        <linearGradient x1="0%" y1="50.0166251%" x2="99.995292%" y2="50.0166251%" id="linearGradient-42">
            <stop stop-color="#60BB46" offset="0%"></stop>
            <stop stop-color="#60BB46" offset="22.78%"></stop>
            <stop stop-color="#60BB46" offset="41.73%"></stop>
            <stop stop-color="#44B649" offset="60.53%"></stop>
            <stop stop-color="#28B34B" offset="77.74%"></stop>
            <stop stop-color="#0DB14B" offset="99.43%"></stop>
            <stop stop-color="#0DB14B" offset="100%"></stop>
        </linearGradient>
        <polyline id="path-43" points="0.287272727 0.0752475248 2.64 0.0752475248 12.4981818 21.720198 21.3563636 0.0752475248 23.6585455 0.0752475248 8.14545455 37.9811881 5.84363636 37.9811881 11.4 24.4129307 0.287272727 0.0752475248"></polyline>
        <linearGradient x1="-0.0625221033%" y1="50.0548608%" x2="99.9398846%" y2="50.0548608%" id="linearGradient-45">
            <stop stop-color="#60BB46" offset="0%"></stop>
            <stop stop-color="#60BB46" offset="22.78%"></stop>
            <stop stop-color="#60BB46" offset="41.73%"></stop>
            <stop stop-color="#44B649" offset="60.53%"></stop>
            <stop stop-color="#28B34B" offset="77.74%"></stop>
            <stop stop-color="#0DB14B" offset="99.43%"></stop>
            <stop stop-color="#0DB14B" offset="100%"></stop>
        </linearGradient>
        <polyline id="path-46" points="134.905649 0.0295101744 134.905649 256.632057 0.145069061 192.975622 0.145069061 48.50875 134.905649 0.0295101744"></polyline>
        <linearGradient x1="-21.7738695%" y1="88.628836%" x2="193.169206%" y2="-26.6985479%" id="linearGradient-48">
            <stop stop-color="#B2D238" offset="0%"></stop>
            <stop stop-color="#60BB46" offset="22.78%"></stop>
            <stop stop-color="#60BB46" offset="41.73%"></stop>
            <stop stop-color="#44B649" offset="60.53%"></stop>
            <stop stop-color="#28B34B" offset="77.74%"></stop>
            <stop stop-color="#0DB14B" offset="99.43%"></stop>
            <stop stop-color="#0DB14B" offset="100%"></stop>
        </linearGradient>
        <polyline id="path-49" points="0 255.843892 131.885575 318 131.885575 62.5069918 0 0.31613161 0 255.843892"></polyline>
        <rect id="path-51" x="0.0224362606" y="0.198049354" width="916.648385" height="391.042844"></rect>
        <linearGradient x1="17.6535587%" y1="69.3988208%" x2="78.5989386%" y2="32.8510674%" id="linearGradient-53">
            <stop stop-color="#B2D238" offset="0%"></stop>
            <stop stop-color="#60BB46" offset="22.78%"></stop>
            <stop stop-color="#60BB46" offset="41.73%"></stop>
            <stop stop-color="#44B649" offset="60.53%"></stop>
            <stop stop-color="#28B34B" offset="77.74%"></stop>
            <stop stop-color="#0DB14B" offset="99.43%"></stop>
            <stop stop-color="#0DB14B" offset="100%"></stop>
        </linearGradient>
        <polyline id="path-54" points="317.376167 62.5136103 319.539655 61.7388252 320.735296 61.3193983 191.051296 0.197421203 189.856774 0.61722063 186.432774 1.84309456 184.817707 2.42455587 0.35343554 68.612063 130.037436 129.734413 184.817707 110.080946 188.047467 108.919885 317.376167 62.5136103"></polyline>
        <linearGradient x1="-5.16956838%" y1="83.1216153%" x2="171.135891%" y2="-22.9723129%" id="linearGradient-56">
            <stop stop-color="#B2D238" offset="0%"></stop>
            <stop stop-color="#60BB46" offset="22.78%"></stop>
            <stop stop-color="#60BB46" offset="41.73%"></stop>
            <stop stop-color="#44B649" offset="60.53%"></stop>
            <stop stop-color="#28B34B" offset="77.74%"></stop>
            <stop stop-color="#0DB14B" offset="99.43%"></stop>
            <stop stop-color="#0DB14B" offset="100%"></stop>
        </linearGradient>
    </defs>
    <g id="neo-logo-with-text" stroke="none" stroke-width="1" fill="none" fill-rule="evenodd">
        <g id="NEO_Logo_01(2)" transform="translate(55.000000, 317.000000)">
            <g id="Clipped" transform="translate(424.000000, 134.000000)">
                <mask id="mask-2" fill="white">
                    <use xlink:href="#path-1"></use>
                </mask>
                <g id="SVGID_1_"></g>
                <rect id="Rectangle-path" fill="url(#linearGradient-3)" fill-rule="nonzero" mask="url(#mask-2)" x="0.0261516854" y="0.211514644" width="132.96264" height="177.637297"></rect>
            </g>
            <g id="Clipped" transform="translate(609.000000, 134.000000)">
                <mask id="mask-5" fill="white">
                    <use xlink:href="#path-4"></use>
                </mask>
                <g id="SVGID_4_"></g>
                <rect id="Rectangle-path" fill="url(#linearGradient-6)" fill-rule="nonzero" mask="url(#mask-5)" x="0.229863946" y="0.311686192" width="108.692279" height="177.537498"></rect>
            </g>
            <g id="Clipped" transform="translate(756.000000, 130.000000)">
                <mask id="mask-8" fill="white">
                    <use xlink:href="#path-7"></use>
                </mask>
                <g id="SVGID_7_"></g>
                <rect id="Rectangle-path" fill="url(#linearGradient-9)" fill-rule="nonzero" mask="url(#mask-8)" x="0.0559859155" y="0.351084337" width="158.719697" height="185.463663"></rect>
            </g>
            <g id="Clipped" transform="translate(423.000000, 341.000000)">
                <mask id="mask-11" fill="white">
                    <use xlink:href="#path-10"></use>
                </mask>
                <g id="SVGID_10_"></g>
                <rect id="Rectangle-path" fill="url(#linearGradient-12)" fill-rule="nonzero" mask="url(#mask-11)" x="0.0818604651" y="0.302941176" width="15.7730233" height="24.3889706"></rect>
            </g>
            <g id="Clipped" transform="translate(453.000000, 341.000000)">
                <mask id="mask-14" fill="white">
                    <use xlink:href="#path-13"></use>
                </mask>
                <g id="SVGID_13_"></g>
                <rect id="Rectangle-path" fill="url(#linearGradient-15)" fill-rule="nonzero" mask="url(#mask-14)" x="0.0550632911" y="0.299636364" width="28.8458228" height="23.6225455"></rect>
            </g>
            <g id="Clipped" transform="translate(496.000000, 341.000000)">
                <mask id="mask-17" fill="white">
                    <use xlink:href="#path-16"></use>
                </mask>
                <g id="SVGID_16_"></g>
                <rect id="Rectangle-path" fill="url(#linearGradient-18)" fill-rule="nonzero" mask="url(#mask-17)" x="0.118095238" y="0.302941176" width="23.6457143" height="24.3889706"></rect>
            </g>
            <g id="Clipped" transform="translate(536.000000, 341.000000)">
                <mask id="mask-20" fill="white">
                    <use xlink:href="#path-19"></use>
                </mask>
                <g id="SVGID_19_"></g>
                <rect id="Rectangle-path" fill="url(#linearGradient-21)" fill-rule="nonzero" mask="url(#mask-20)" x="0.0589285714" y="0.299636364" width="10.5953571" height="23.6225455"></rect>
            </g>
            <g id="Clipped" transform="translate(557.000000, 333.000000)">
                <mask id="mask-23" fill="white">
                    <use xlink:href="#path-22"></use>
                </mask>
                <g id="SVGID_22_"></g>
                <rect id="Rectangle-path" fill="url(#linearGradient-24)" fill-rule="nonzero" mask="url(#mask-23)" x="0.144" y="0.180229885" width="8.76924" height="31.7410575"></rect>
            </g>
            <g id="Clipped" transform="translate(601.000000, 341.000000)">
                <mask id="mask-26" fill="white">
                    <use xlink:href="#path-25"></use>
                </mask>
                <g id="SVGID_25_"></g>
                <rect id="Rectangle-path" fill="url(#linearGradient-27)" fill-rule="nonzero" mask="url(#mask-26)" x="0.0404354839" y="0.302941176" width="22.770371" height="24.3889706"></rect>
            </g>
            <g id="Clipped" transform="translate(635.000000, 341.000000)">
                <mask id="mask-29" fill="white">
                    <use xlink:href="#path-28"></use>
                </mask>
                <g id="SVGID_28_"></g>
                <rect id="Rectangle-path" fill="url(#linearGradient-30)" fill-rule="nonzero" mask="url(#mask-29)" x="0.320526316" y="0.302941176" width="20.5357895" height="24.3889706"></rect>
            </g>
            <g id="Clipped" transform="translate(668.000000, 341.000000)">
                <mask id="mask-32" fill="white">
                    <use xlink:href="#path-31"></use>
                </mask>
                <g id="SVGID_31_"></g>
                <rect id="Rectangle-path" fill="url(#linearGradient-33)" fill-rule="nonzero" mask="url(#mask-32)" x="0.0335820896" y="0.302941176" width="24.8026119" height="24.3889706"></rect>
            </g>
            <g id="Clipped" transform="translate(707.000000, 341.000000)">
                <mask id="mask-35" fill="white">
                    <use xlink:href="#path-34"></use>
                </mask>
                <g id="SVGID_34_"></g>
                <rect id="Rectangle-path" fill="url(#linearGradient-36)" fill-rule="nonzero" mask="url(#mask-35)" x="0.054" y="0.299636364" width="17.7085532" height="23.6225455"></rect>
            </g>
            <g id="Clipped" transform="translate(738.000000, 341.000000)">
                <mask id="mask-38" fill="white">
                    <use xlink:href="#path-37"></use>
                </mask>
                <g id="SVGID_37_"></g>
                <rect id="Rectangle-path" fill="url(#linearGradient-39)" fill-rule="nonzero" mask="url(#mask-38)" x="0.352941176" y="0.302941176" width="24.4375" height="24.3889706"></rect>
            </g>
            <g id="Clipped" transform="translate(778.000000, 341.000000)">
                <mask id="mask-41" fill="white">
                    <use xlink:href="#path-40"></use>
                </mask>
                <g id="SVGID_40_"></g>
                <rect id="Rectangle-path" fill="url(#linearGradient-42)" fill-rule="nonzero" mask="url(#mask-41)" x="0" y="0.299636364" width="28.8494937" height="23.6225455"></rect>
            </g>
            <g id="Clipped" transform="translate(818.000000, 342.000000)">
                <mask id="mask-44" fill="white">
                    <use xlink:href="#path-43"></use>
                </mask>
                <g id="SVGID_43_"></g>
                <rect id="Rectangle-path" fill="url(#linearGradient-45)" fill-rule="nonzero" mask="url(#mask-44)" x="0.287272727" y="0.0752475248" width="23.3709091" height="37.9059406"></rect>
            </g>
            <g id="Clipped" transform="translate(193.000000, 67.000000)">
                <mask id="mask-47" fill="white">
                    <use xlink:href="#path-46"></use>
                </mask>
                <g id="SVGID_46_"></g>
                <polygon id="Shape" fill="url(#linearGradient-48)" fill-rule="nonzero" mask="url(#mask-47)" points="-109.391768 61.8245625 102.452693 -57.6871613 244.442486 194.837004 32.5980249 314.348728"></polygon>
            </g>
            <g id="Clipped" transform="translate(0.000000, 73.000000)">
                <mask id="mask-50" fill="white">
                    <use xlink:href="#path-49"></use>
                </mask>
                <g id="SVGID_49_"></g>
                <g mask="url(#mask-50)">
                    <g transform="translate(0.000000, -73.240893)">
                        <mask id="mask-52" fill="white">
                            <use xlink:href="#path-51"></use>
                        </mask>
                        <g id="SVGID_51_" stroke="none" fill="none"></g>
                        <polygon id="Shape" stroke="none" fill="url(#linearGradient-53)" fill-rule="nonzero" mask="url(#mask-52)" points="-167.296351 94.369396 695.922697 -391.471452 1083.98961 297.06992 220.770187 782.910769"></polygon>
                    </g>
                </g>
            </g>
            <g id="Clipped" transform="translate(5.000000, 0.000000)">
                <mask id="mask-55" fill="white">
                    <use xlink:href="#path-54"></use>
                </mask>
                <g id="SVGID_54_"></g>
                <polygon id="Shape" fill="url(#linearGradient-56)" fill-rule="nonzero" mask="url(#mask-55)" points="-55.0833763 31.3925788 243.58084 -136.670974 376.171735 98.539255 77.507892 266.602808"></polygon>
            </g>
        </g>
    </g>
</svg>