<svg height="45" viewBox="0 0 304 45" width="304" xmlns="http://www.w3.org/2000/svg"><g fill="#fff" fill-rule="evenodd" transform=""><path d="m73.7584538 16.5628561c-.3144519 0-.577365.2602458-.577365.5729292v11.9790768c0 .3126834.2629131.5729292.577365.5729292h15.4316288v2.8122087h-15.4316288c-1.8893209 0-3.4113464-1.5103321-3.4113464-3.3851379v-11.9790768c0-1.8748058 1.5220255-3.3857853 3.4113464-3.3857853h15.4316288v2.8128561z"/><path d="m95.4710744 15.7037859 2.5123967-1.9537859v18.75h-2.5123967z"/><path d="m123.107438 13.75v2.8128561h-8.008086v15.9371439h-2.826153v-15.9371439h-8.008736v-2.8128561z"/><path d="m146.975207 13.75-8.103299 11.7194783v7.0305217h-2.635771v-7.0305217l-8.103906-11.7194783h3.099944l6.321241 8.5421486 6.297576-8.5421486z"/><path d="m181.259233 29.6877913c.313584 0 .575771-.2602458.575771-.5735766v-11.9790768c0-.3126834-.262187-.5722818-.575771-.5722818h-12.039127c-.313584 0-.575771.2595984-.575771.5722818v11.9790768c0 .3133308.262187.5735766.575771.5735766zm0-15.9377913c1.884103 0 3.401924 1.5103321 3.401924 3.3851379v11.9790768c0 1.8754532-1.517821 3.3857853-3.401924 3.3857853h-12.039127c-1.883452 0-3.401924-1.5103321-3.401924-3.3857853v-11.9790768c0-1.8748058 1.518472-3.3851379 3.401924-3.3851379z"/><path d="m207.272727 13.75v2.8128561h-14.708639v5.1563632h11.830502v2.8122087h-11.830502v7.968572h-2.878138v-18.75z"/><path d="m223.603306 13.75h18.842975v3.3333477l-15.074771 12.6044436h15.074771v2.8122087h-18.842975v-3.3333477l15.07412-12.6037962h-15.07412z"/><path d="m249.983471 16.0309942 2.512397-2.2809942v18.75h-2.512397z"/><path d="m274.217911 29.6877913c.313583 0 .57577-.2602458.57577-.5735766v-11.9790768c0-.3126834-.262187-.5722818-.57577-.5722818h-12.039128c-.313583 0-.57577.2595984-.57577.5722818v11.9790768c0 .3133308.262187.5735766.57577.5735766zm0-15.9377913c1.884102 0 3.401924 1.5103321 3.401924 3.3851379v11.9790768c0 1.8754532-1.517822 3.3857853-3.401924 3.3857853h-12.039128c-1.883452 0-3.401923-1.5103321-3.401923-3.3857853v-11.9790768c0-1.8748058 1.518471-3.3851379 3.401923-3.3851379z"/><path d="m15.5553157.215875h2.7290909v18.101875h-3.2347107l-12.22846284-14.48125v14.48125h-2.72909091v-18.101875h3.23408264l12.22909091 14.481875z" transform="translate(285.157025 13.75)"/><path d="m51.5041322 32.1428571-6.4378093 6.4285715h-12.8762403l12.8762403-12.8571429z"/><path d="m38.6280992 19.3723511-5.9181149-6.3419347 5.9181149-6.34254691-6.4377058-6.34193465-6.4383273 6.34193465-6.0871684-6.68786949-6.7888646 6.68786949 19.3143603 19.02641621z"/><path d="m6.43786115 12.8571429 19.31420495 19.2855901-12.8763438 12.857267h-12.8757223l12.8757223-12.857267-12.8757223-12.857267z"/></g></svg>