<svg enable-background="new 0 0 304 45" height="45" viewBox="0 0 304 45" width="304" xmlns="http://www.w3.org/2000/svg"><g fill="#212146" transform=""><path d="m73.758 16.563c-.314 0-.577.26-.577.573v11.979c0 .312.263.572.577.572h15.432v2.813h-15.432c-1.889 0-3.411-1.51-3.411-3.385v-11.979c0-1.875 1.522-3.386 3.411-3.386h15.432v2.813z"/><path d="m95.471 15.704 2.512-1.954v18.75h-2.512z"/><path d="m123.107 13.75v2.813h-8.008v15.937h-2.826v-15.937h-8.008v-2.813z"/><path d="m146.975 13.75-8.103 11.719v7.031h-2.636v-7.031l-8.104-11.719h3.1l6.321 8.542 6.298-8.542z"/><path d="m181.26 29.688c.312 0 .575-.26.575-.573v-11.98c0-.313-.263-.572-.575-.572h-12.039c-.314 0-.576.259-.576.572v11.979c0 .313.262.573.576.573h12.039zm0-15.938c1.884 0 3.401 1.51 3.401 3.385v11.979c0 1.876-1.518 3.386-3.401 3.386h-12.039c-1.885 0-3.402-1.51-3.402-3.386v-11.979c0-1.875 1.518-3.385 3.402-3.385z"/><path d="m207.273 13.75v2.813h-14.709v5.156h11.831v2.812h-11.831v7.969h-2.878v-18.75z"/><path d="m223.604 13.75h18.842v3.333l-15.075 12.605h15.075v2.812h-18.842v-3.334l15.074-12.603h-15.074z"/><path d="m249.983 16.031 2.513-2.281v18.75h-2.513z"/><path d="m274.218 29.688c.313 0 .575-.26.575-.573v-11.98c0-.313-.262-.572-.575-.572h-12.039c-.313 0-.575.259-.575.572v11.979c0 .313.262.573.575.573h12.039zm0-15.938c1.884 0 3.401 1.51 3.401 3.385v11.979c0 1.876-1.518 3.386-3.401 3.386h-12.039c-1.884 0-3.401-1.51-3.401-3.386v-11.979c0-1.875 1.518-3.385 3.401-3.385z"/><path d="m15.556.216h2.728v18.102h-3.234l-12.228-14.482v14.482h-2.73v-18.102h3.234l12.23 14.481z" transform="translate(285.157025 13.75)"/><path d="m51.504 32.143-6.438 6.428h-12.876l12.876-12.856z"/><path d="m38.628 19.373-5.918-6.343 5.918-6.342-6.438-6.342-6.438 6.342-6.087-6.688-6.789 6.688 19.314 19.027z"/><path d="m6.438 12.857 19.314 19.286-12.876 12.857h-12.876l12.876-12.857-12.876-12.857z"/></g></svg>