<?xml version="1.0" encoding="UTF-8"?>
<svg width="50px" height="95px" viewBox="0 0 50 95" version="1.1" xmlns="http://www.w3.org/2000/svg" xmlns:xlink="http://www.w3.org/1999/xlink">
    <!-- Generator: Sketch 47.1 (45422) - http://www.bohemiancoding.com/sketch -->
    <title>ICON_Winner</title>
    <desc>Created with Sketch.</desc>
    <defs>
        <polygon id="path-1" points="0 47.58945 0 0.179 50 0.179 50 47.58945 50 94.9999 0 94.9999"></polygon>
        <linearGradient x1="50%" y1="129.258193%" x2="50%" y2="-29.234413%" id="linearGradient-3">
            <stop stop-color="#CEDAE3" offset="0%"></stop>
            <stop stop-color="#FFFFFF" offset="100%"></stop>
        </linearGradient>
    </defs>
    <g id="Page-1" stroke="none" stroke-width="1" fill="none" fill-rule="evenodd">
        <g id="CoZ_CompetitionPage_Reg_DESKTOP" transform="translate(-695.000000, -630.000000)">
            <g id="PANEL_Competition-information" transform="translate(231.000000, 625.000000)">
                <g id="Top-information">
                    <g id="Winner-tag" transform="translate(326.000000, 0.000000)">
                        <g id="ICON_Winner" transform="translate(138.000000, 4.000000)">
                            <g id="Group-3" transform="translate(0.000000, 0.821000)">
                                <mask id="mask-2" fill="white">
                                    <use xlink:href="#path-1"></use>
                                </mask>
                                <g id="Clip-2"></g>
                                <path d="M25,92.5499 C13.061,92.5499 3.351,82.8289 3.351,70.8999 C3.351,58.9599 13.061,49.2399 25,49.2399 C36.931,49.2399 46.65,58.9599 46.65,70.8999 C46.65,82.8289 36.931,92.5499 25,92.5499 M25,38.9859 C26.282,38.9859 27.325,40.0289 27.325,41.3099 C27.325,42.5889 26.282,43.6299 25,43.6299 C23.719,43.6299 22.677,42.5889 22.677,41.3099 C22.677,40.0289 23.719,38.9859 25,38.9859 M27.517,46.9209 C29.66,45.9569 31.158,43.8069 31.158,41.3109 C31.158,39.3779 30.262,37.6539 28.864,36.5239 L34.112,36.5239 C34.762,36.5239 35.292,35.6509 35.292,34.5639 C35.292,33.4769 34.763,32.6039 34.112,32.6039 L32.972,32.6039 L50,0.1789 L44.51,0.1789 L30.041,27.9489 L27.711,23.4089 L39.721,0.1789 L34.211,0.1789 L24.73,17.5889 L16.11,0.7789 L15.79,0.1789 L10.32,0.1789 L25.02,28.6189 L27.083,32.6029 L22.421,32.6029 L5.53,0.1789 L0,0.1789 L17.024,32.6039 L15.898,32.6039 C15.247,32.6039 14.71,33.4769 14.71,34.5639 C14.71,35.6509 15.247,36.5239 15.898,36.5239 L21.136,36.5239 C19.74,37.6539 18.843,39.3779 18.843,41.3109 C18.843,43.8069 20.34,45.9569 22.483,46.9199 C10.349,48.1799 0.9,58.4389 0.9,70.8999 C0.9,84.2099 11.68,94.9999 25,94.9999 C38.311,94.9999 49.101,84.2099 49.101,70.8999 C49.101,58.4389 39.645,48.1799 27.517,46.9209" id="Fill-1" fill="url(#linearGradient-3)" mask="url(#mask-2)"></path>
                            </g>
                            <path d="M24.6538,58.2279 C24.9248,58.2279 25.1438,58.0079 25.1438,57.7379 L25.1438,52.8379 C25.1438,52.5669 24.9238,52.3479 24.6538,52.3479 C24.3838,52.3479 24.1638,52.5679 24.1638,52.8379 L24.1638,57.7379 C24.1638,58.0089 24.3838,58.2279 24.6538,58.2279" id="Fill-4" fill="#8181BE"></path>
                            <path d="M22.2319,58.4998 C22.2599,58.4998 22.2889,58.4968 22.3179,58.4918 C22.5849,58.4448 22.7619,58.1908 22.7149,57.9248 L21.8629,53.0998 C21.8149,52.8328 21.5619,52.6568 21.2959,52.7028 C21.0289,52.7498 20.8509,53.0038 20.8989,53.2698 L21.7509,58.0948 C21.7929,58.3328 21.9989,58.4998 22.2319,58.4998" id="Fill-6" fill="#8181BE"></path>
                            <path d="M19.4351,58.8661 C19.5071,59.0641 19.6951,59.1881 19.8951,59.1881 C19.9511,59.1881 20.0071,59.1781 20.0631,59.1581 C20.3171,59.0661 20.4491,58.7851 20.3561,58.5301 L18.6791,53.9261 C18.5871,53.6731 18.3051,53.5401 18.0511,53.6341 C17.7971,53.7261 17.6651,54.0071 17.7581,54.2621 L19.4351,58.8661 Z" id="Fill-8" fill="#8181BE"></path>
                            <path d="M17.2881,60.0282 C17.3791,60.1852 17.5431,60.2732 17.7131,60.2732 C17.7961,60.2732 17.8801,60.2522 17.9571,60.2082 C18.1911,60.0722 18.2711,59.7722 18.1371,59.5382 L15.6861,55.2942 C15.5511,55.0602 15.2511,54.9812 15.0171,55.1142 C14.7831,55.2502 14.7031,55.5502 14.8371,55.7842 L17.2881,60.0282 Z" id="Fill-10" fill="#8181BE"></path>
                            <path d="M15.375,61.5438 C15.472,61.6588 15.61,61.7188 15.751,61.7188 C15.861,61.7188 15.974,61.6818 16.065,61.6048 C16.272,61.4298 16.299,61.1218 16.126,60.9138 L12.976,57.1598 C12.802,56.9528 12.494,56.9268 12.286,57.0998 C12.079,57.2738 12.052,57.5818 12.225,57.7898 L15.375,61.5438 Z" id="Fill-12" fill="#8181BE"></path>
                            <path d="M13.7549,63.368 C13.8469,63.445 13.9579,63.483 14.0689,63.483 C14.2089,63.483 14.3469,63.423 14.4449,63.308 C14.6189,63.1 14.5909,62.791 14.3839,62.618 L10.6299,59.469 C10.4219,59.294 10.1129,59.323 9.9399,59.529 C9.7659,59.737 9.7939,60.046 10.0009,60.219 L13.7549,63.368 Z" id="Fill-14" fill="#8181BE"></path>
                            <path d="M8.2319,62.9979 L12.4749,65.4479 C12.5519,65.4919 12.6369,65.5129 12.7199,65.5129 C12.8889,65.5129 13.0539,65.4249 13.1449,65.2689 C13.2799,65.0339 13.1999,64.7339 12.9649,64.5989 L8.7219,62.1479 C8.4879,62.0159 8.1879,62.0929 8.0529,62.3279 C7.9179,62.5619 7.9979,62.8619 8.2319,62.9979" id="Fill-16" fill="#8181BE"></path>
                            <path d="M6.9741,66.0418 L11.5781,67.7168 C11.6331,67.7368 11.6891,67.7458 11.7451,67.7458 C11.9451,67.7458 12.1341,67.6218 12.2061,67.4238 C12.2991,67.1688 12.1671,66.8878 11.9131,66.7948 L7.3091,65.1198 C7.0561,65.0308 6.7731,65.1598 6.6811,65.4128 C6.5881,65.6678 6.7191,65.9488 6.9741,66.0418" id="Fill-18" fill="#8181BE"></path>
                            <path d="M6.2632,69.2577 L11.0872,70.1087 C11.1162,70.1127 11.1452,70.1157 11.1732,70.1157 C11.4062,70.1157 11.6132,69.9477 11.6542,69.7107 C11.7012,69.4447 11.5232,69.1907 11.2572,69.1447 L6.4332,68.2937 C6.1662,68.2457 5.9122,68.4247 5.8662,68.6917 C5.8182,68.9567 5.9962,69.2107 6.2632,69.2577" id="Fill-20" fill="#8181BE"></path>
                            <path d="M11.019,72.5487 C11.29,72.5487 11.509,72.3287 11.509,72.0597 C11.509,71.7887 11.289,71.5697 11.019,71.5697 L6.12,71.5697 C5.849,71.5697 5.63,71.7887 5.63,72.0597 C5.63,72.3287 5.85,72.5487 6.12,72.5487 L11.019,72.5487 Z" id="Fill-22" fill="#8181BE"></path>
                            <path d="M11.7729,74.3944 C11.7259,74.1254 11.4729,73.9504 11.2059,73.9974 L6.3809,74.8484 C6.1139,74.8954 5.9359,75.1494 5.9839,75.4154 C6.0259,75.6534 6.2319,75.8204 6.4649,75.8204 C6.4929,75.8204 6.5219,75.8174 6.5509,75.8124 L11.3759,74.9604 C11.6429,74.9154 11.8199,74.6614 11.7729,74.3944" id="Fill-24" fill="#8181BE"></path>
                            <path d="M12.439,76.6502 C12.346,76.3972 12.065,76.2682 11.811,76.3572 L7.207,78.0332 C6.952,78.1262 6.821,78.4072 6.914,78.6622 C6.986,78.8602 7.174,78.9842 7.374,78.9842 C7.43,78.9842 7.486,78.9742 7.542,78.9552 L12.146,77.2792 C12.4,77.1862 12.532,76.9052 12.439,76.6502" id="Fill-26" fill="#8181BE"></path>
                            <path d="M13.4858,78.7547 C13.3508,78.5217 13.0508,78.4417 12.8168,78.5757 L8.5728,81.0267 C8.3388,81.1617 8.2588,81.4617 8.3938,81.6957 C8.4848,81.8537 8.6488,81.9417 8.8188,81.9417 C8.9018,81.9417 8.9858,81.9197 9.0628,81.8747 L13.3068,79.4237 C13.5418,79.2887 13.6218,78.9887 13.4858,78.7547" id="Fill-28" fill="#8181BE"></path>
                            <path d="M14.8838,80.6483 C14.7098,80.4403 14.4018,80.4133 14.1938,80.5863 L10.4408,83.7353 C10.2328,83.9093 10.2068,84.2163 10.3798,84.4233 C10.4768,84.5403 10.6148,84.6003 10.7558,84.6003 C10.8658,84.6003 10.9788,84.5623 11.0698,84.4853 L14.8228,81.3363 C15.0308,81.1643 15.0578,80.8553 14.8838,80.6483" id="Fill-30" fill="#8181BE"></path>
                            <path d="M16.5889,82.2674 C16.3809,82.0914 16.0719,82.1214 15.8989,82.3274 L12.7489,86.0804 C12.5749,86.2884 12.6029,86.5964 12.8099,86.7704 C12.9019,86.8464 13.0139,86.8844 13.1239,86.8844 C13.2649,86.8844 13.4029,86.8254 13.4999,86.7094 L16.6499,82.9564 C16.8229,82.7494 16.7959,82.4414 16.5889,82.2674" id="Fill-32" fill="#8181BE"></path>
                            <path d="M18.5488,83.5682 C18.3148,83.4292 18.0148,83.5112 17.8788,83.7472 L15.4288,87.9892 C15.2938,88.2232 15.3738,88.5232 15.6088,88.6582 C15.6858,88.7032 15.7698,88.7242 15.8528,88.7242 C16.0228,88.7242 16.1868,88.6352 16.2778,88.4792 L18.7278,84.2372 C18.8628,84.0032 18.7828,83.7032 18.5488,83.5682" id="Fill-34" fill="#8181BE"></path>
                            <path d="M20.7051,84.5067 C20.4521,84.4127 20.1691,84.5447 20.0771,84.7987 L18.4001,89.4027 C18.3071,89.6577 18.4381,89.9397 18.6931,90.0307 C18.7481,90.0517 18.8041,90.0617 18.8601,90.0617 C19.0601,90.0617 19.2491,89.9377 19.3211,89.7387 L20.9981,85.1347 C21.0911,84.8797 20.9591,84.5987 20.7051,84.5067" id="Fill-36" fill="#8181BE"></path>
                            <path d="M22.9912,85.0575 C22.7212,85.0115 22.4702,85.1875 22.4242,85.4535 L21.5712,90.2785 C21.5242,90.5445 21.7022,90.7985 21.9682,90.8445 C21.9972,90.8505 22.0262,90.8535 22.0542,90.8535 C22.2872,90.8535 22.4932,90.6865 22.5352,90.4485 L23.3882,85.6235 C23.4362,85.3585 23.2582,85.1045 22.9912,85.0575" id="Fill-38" fill="#8181BE"></path>
                            <path d="M25.3379,85.202 C25.0669,85.202 24.8479,85.422 24.8479,85.692 L24.8469,90.591 C24.8469,90.862 25.0669,91.081 25.3369,91.081 C25.6069,91.081 25.8259,90.861 25.8269,90.591 L25.8279,85.692 C25.8279,85.422 25.6079,85.202 25.3379,85.202" id="Fill-40" fill="#8181BE"></path>
                            <path d="M27.6748,84.9373 C27.4078,84.9843 27.2318,85.2383 27.2788,85.5033 L28.1278,90.3303 C28.1698,90.5673 28.3758,90.7353 28.6098,90.7353 C28.6368,90.7353 28.6668,90.7323 28.6958,90.7273 C28.9618,90.6793 29.1388,90.4253 29.0918,90.1603 L28.2418,85.3333 C28.1958,85.0693 27.9348,84.8923 27.6748,84.9373" id="Fill-42" fill="#8181BE"></path>
                            <path d="M30.5586,84.5643 C30.4646,84.3113 30.1866,84.1823 29.9296,84.2713 C29.6756,84.3643 29.5446,84.6453 29.6366,84.9003 L31.3116,89.5033 C31.3846,89.7023 31.5736,89.8263 31.7736,89.8263 C31.8296,89.8263 31.8846,89.8163 31.9416,89.7963 C32.1956,89.7043 32.3266,89.4223 32.2346,89.1683 L30.5586,84.5643 Z" id="Fill-44" fill="#8181BE"></path>
                            <path d="M32.7041,83.4032 C32.5681,83.1682 32.2661,83.0912 32.0341,83.2232 C31.8001,83.3592 31.7201,83.6592 31.8531,83.8932 L34.3031,88.1362 C34.3931,88.2942 34.5581,88.3822 34.7271,88.3822 C34.8111,88.3822 34.8961,88.3612 34.9731,88.3172 C35.2071,88.1812 35.2871,87.8812 35.1531,87.6472 L32.7041,83.4032 Z" id="Fill-46" fill="#8181BE"></path>
                            <path d="M34.6172,81.8885 C34.4442,81.6795 34.1352,81.6555 33.9282,81.8275 C33.7202,82.0015 33.6932,82.3105 33.8672,82.5175 L37.0142,86.2715 C37.1122,86.3865 37.2502,86.4475 37.3892,86.4475 C37.5012,86.4475 37.6132,86.4095 37.7042,86.3315 C37.9122,86.1585 37.9392,85.8505 37.7642,85.6435 L34.6172,81.8885 Z" id="Fill-48" fill="#8181BE"></path>
                            <path d="M36.2373,80.0623 C36.0293,79.8863 35.7183,79.9153 35.5473,80.1223 C35.3733,80.3293 35.4003,80.6383 35.6073,80.8123 L39.3593,83.9623 C39.4513,84.0403 39.5633,84.0783 39.6743,84.0783 C39.8143,84.0783 39.9523,84.0183 40.0493,83.9033 C40.2223,83.6963 40.1963,83.3853 39.9893,83.2123 L36.2373,80.0623 Z" id="Fill-50" fill="#8181BE"></path>
                            <path d="M41.7588,80.4354 L37.5148,77.9844 C37.2838,77.8494 36.9818,77.9264 36.8448,78.1634 C36.7098,78.3974 36.7898,78.6974 37.0258,78.8314 L41.2688,81.2834 C41.3458,81.3284 41.4298,81.3494 41.5138,81.3494 C41.6828,81.3494 41.8478,81.2604 41.9398,81.1044 C42.0728,80.8704 41.9928,80.5704 41.7588,80.4354" id="Fill-52" fill="#8181BE"></path>
                            <path d="M43.0176,77.3914 L38.4136,75.7144 C38.1586,75.6204 37.8786,75.7524 37.7866,76.0064 C37.6936,76.2614 37.8246,76.5424 38.0786,76.6344 L42.6816,78.3114 C42.7386,78.3314 42.7936,78.3404 42.8496,78.3404 C43.0496,78.3404 43.2386,78.2164 43.3096,78.0194 C43.4026,77.7634 43.2716,77.4834 43.0176,77.3914" id="Fill-54" fill="#8181BE"></path>
                            <path d="M43.7285,74.1776 L38.9045,73.3236 C38.6425,73.2756 38.3825,73.4536 38.3365,73.7206 C38.2905,73.9876 38.4675,74.2416 38.7345,74.2876 L43.5585,75.1426 C43.5865,75.1476 43.6175,75.1506 43.6445,75.1506 C43.8765,75.1506 44.0835,74.9836 44.1255,74.7446 C44.1725,74.4796 43.9955,74.2246 43.7285,74.1776" id="Fill-56" fill="#8181BE"></path>
                            <path d="M38.9707,70.8846 C38.6997,70.8846 38.4817,71.1056 38.4817,71.3746 C38.4817,71.6456 38.7007,71.8646 38.9707,71.8646 L43.8707,71.8666 C44.1417,71.8666 44.3617,71.6476 44.3617,71.3766 C44.3617,71.1076 44.1407,70.8866 43.8707,70.8866 L38.9707,70.8846 Z" id="Fill-58" fill="#8181BE"></path>
                            <path d="M38.2168,69.0379 C38.2588,69.2749 38.4648,69.4429 38.6978,69.4429 C38.7258,69.4429 38.7558,69.4399 38.7838,69.4349 L43.6128,68.5849 C43.8788,68.5379 44.0558,68.2839 44.0088,68.0179 C43.9618,67.7519 43.7038,67.5739 43.4428,67.6209 L38.6138,68.4709 C38.3478,68.5169 38.1698,68.7709 38.2168,69.0379" id="Fill-60" fill="#8181BE"></path>
                            <path d="M37.5488,66.785 C37.6218,66.983 37.8098,67.107 38.0098,67.107 C38.0668,67.107 38.1218,67.097 38.1778,67.078 L42.7848,65.402 C43.0388,65.309 43.1698,65.028 43.0778,64.773 C42.9848,64.52 42.7048,64.391 42.4488,64.48 L37.8418,66.156 C37.5878,66.249 37.4568,66.53 37.5488,66.785" id="Fill-62" fill="#8181BE"></path>
                            <path d="M36.5029,64.6795 C36.5939,64.8365 36.7589,64.9245 36.9279,64.9245 C37.0119,64.9245 37.0959,64.9045 37.1729,64.8605 L41.4189,62.4095 C41.6529,62.2745 41.7329,61.9745 41.5989,61.7405 C41.4629,61.5045 41.1609,61.4275 40.9289,61.5605 L36.6829,64.0095 C36.4479,64.1455 36.3679,64.4455 36.5029,64.6795" id="Fill-64" fill="#8181BE"></path>
                            <path d="M35.1074,62.7899 C35.2044,62.9049 35.3414,62.9649 35.4824,62.9649 C35.5924,62.9649 35.7064,62.9269 35.7964,62.8509 L39.5514,59.6979 C39.7584,59.5239 39.7854,59.2159 39.6124,59.0079 C39.4394,58.8019 39.1284,58.7759 38.9214,58.9479 L35.1674,62.1009 C34.9604,62.2729 34.9334,62.5819 35.1074,62.7899" id="Fill-66" fill="#8181BE"></path>
                            <path d="M33.4023,61.1698 C33.4943,61.2468 33.6053,61.2848 33.7153,61.2848 C33.8563,61.2848 33.9943,61.2248 34.0903,61.1088 L37.2433,57.3508 C37.4183,57.1438 37.3893,56.8348 37.1813,56.6618 C36.9733,56.4868 36.6663,56.5128 36.4933,56.7228 L33.3403,60.4808 C33.1673,60.6868 33.1943,60.9958 33.4023,61.1698" id="Fill-68" fill="#8181BE"></path>
                            <path d="M31.4424,59.8719 C31.5184,59.9159 31.6024,59.9369 31.6864,59.9369 C31.8564,59.9369 32.0214,59.8489 32.1124,59.6919 L34.5634,55.4439 C34.6984,55.2099 34.6184,54.9099 34.3824,54.7739 C34.1524,54.6409 33.8484,54.7179 33.7134,54.9539 L31.2614,59.2019 C31.1284,59.4359 31.2084,59.7359 31.4424,59.8719" id="Fill-70" fill="#8181BE"></path>
                            <path d="M29.29,58.931 C29.345,58.951 29.401,58.96 29.457,58.96 C29.657,58.96 29.845,58.836 29.918,58.637 L31.594,54.029 C31.686,53.775 31.555,53.494 31.3,53.401 C31.048,53.31 30.766,53.441 30.672,53.695 L28.996,58.303 C28.904,58.557 29.035,58.839 29.29,58.931" id="Fill-72" fill="#8181BE"></path>
                            <path d="M27.0039,58.3812 C27.0319,58.3862 27.0619,58.3892 27.0899,58.3892 C27.3229,58.3892 27.5289,58.2212 27.5709,57.9842 L28.4209,53.1542 C28.4679,52.8872 28.2899,52.6332 28.0249,52.5872 C27.7619,52.5432 27.5029,52.7182 27.4569,52.9842 L26.6079,57.8142 C26.5599,58.0802 26.7369,58.3342 27.0039,58.3812" id="Fill-74" fill="#8181BE"></path>
                            <path d="M28.748,77.2948 L24.903,74.4998 L21.056,77.2948 L22.526,72.7748 L18.678,69.9778 L23.432,69.9778 L24.903,65.4598 L26.372,69.9778 L31.125,69.9778 L27.278,72.7748 L28.748,77.2948 Z M25,60.8408 C19,60.8408 14.131,65.7208 14.131,71.7208 C14.131,77.7108 19,82.5908 25,82.5908 C30.99,82.5908 35.871,77.7108 35.871,71.7208 C35.871,65.7208 30.99,60.8408 25,60.8408 L25,60.8408 Z" id="Fill-76" fill="url(#linearGradient-3)"></path>
                        </g>
                    </g>
                </g>
            </g>
        </g>
    </g>
</svg>