<?xml version="1.0" encoding="UTF-8"?>
<svg width="304px" height="45px" viewBox="0 0 304 45" version="1.1" xmlns="http://www.w3.org/2000/svg" xmlns:xlink="http://www.w3.org/1999/xlink">
    <!-- Generator: Sketch 46.2 (44496) - http://www.bohemiancoding.com/sketch -->
    <title>Coz-logo</title>
    <desc>Created with Sketch.</desc>
    <defs></defs>
    <g id="Page-1" stroke="none" stroke-width="1" fill="none" fill-rule="evenodd">
        <g id="CoZ_CompetitionPage_Registration_S4" transform="translate(-568.000000, -74.000000)" fill="#FFFFFF">
            <g id="Coz-logo" transform="translate(568.000000, 74.000000)">
                <g id="CoZ_Logo">
                    <path d="M73.7584538,16.5628561 C73.4440019,16.5628561 73.1810888,16.8231019 73.1810888,17.1357853 L73.1810888,29.1148621 C73.1810888,29.4275455 73.4440019,29.6877913 73.7584538,29.6877913 L89.1900826,29.6877913 L89.1900826,32.5 L73.7584538,32.5 C71.8691329,32.5 70.3471074,30.9896679 70.3471074,29.1148621 L70.3471074,17.1357853 C70.3471074,15.2609795 71.8691329,13.75 73.7584538,13.75 L89.1900826,13.75 L89.1900826,16.5628561 L73.7584538,16.5628561 Z" id="Fill-1"></path>
                    <polygon id="Fill-3" points="95.4710744 15.7037859 97.9834711 13.75 97.9834711 32.5 95.4710744 32.5"></polygon>
                    <polygon id="Fill-5" points="123.107438 13.75 123.107438 16.5628561 115.099352 16.5628561 115.099352 32.5 112.273199 32.5 112.273199 16.5628561 104.264463 16.5628561 104.264463 13.75"></polygon>
                    <polygon id="Fill-7" points="146.975207 13.75 138.871908 25.4694783 138.871908 32.5 136.236137 32.5 136.236137 25.4694783 128.132231 13.75 131.232175 13.75 137.553416 22.2921486 143.850992 13.75"></polygon>
                    <path d="M181.259233,29.6877913 C181.572817,29.6877913 181.835004,29.4275455 181.835004,29.1142147 L181.835004,17.1351379 C181.835004,16.8224545 181.572817,16.5628561 181.259233,16.5628561 L169.220106,16.5628561 C168.906522,16.5628561 168.644335,16.8224545 168.644335,17.1351379 L168.644335,29.1142147 C168.644335,29.4275455 168.906522,29.6877913 169.220106,29.6877913 L181.259233,29.6877913 Z M181.259233,13.75 C183.143336,13.75 184.661157,15.2603321 184.661157,17.1351379 L184.661157,29.1142147 C184.661157,30.9896679 183.143336,32.5 181.259233,32.5 L169.220106,32.5 C167.336654,32.5 165.818182,30.9896679 165.818182,29.1142147 L165.818182,17.1351379 C165.818182,15.2603321 167.336654,13.75 169.220106,13.75 L181.259233,13.75 Z" id="Fill-9"></path>
                    <polygon id="Fill-11" points="207.272727 13.75 207.272727 16.5628561 192.564088 16.5628561 192.564088 21.7192193 204.39459 21.7192193 204.39459 24.531428 192.564088 24.531428 192.564088 32.5 189.68595 32.5 189.68595 13.75"></polygon>
                    <polygon id="Fill-13" points="223.603306 13.75 242.446281 13.75 242.446281 17.0833477 227.37151 29.6877913 242.446281 29.6877913 242.446281 32.5 223.603306 32.5 223.603306 29.1666523 238.677426 16.5628561 223.603306 16.5628561"></polygon>
                    <polygon id="Fill-15" points="249.983471 16.0309942 252.495868 13.75 252.495868 32.5 249.983471 32.5"></polygon>
                    <path d="M274.217911,29.6877913 C274.531494,29.6877913 274.793681,29.4275455 274.793681,29.1142147 L274.793681,17.1351379 C274.793681,16.8224545 274.531494,16.5628561 274.217911,16.5628561 L262.178783,16.5628561 C261.8652,16.5628561 261.603013,16.8224545 261.603013,17.1351379 L261.603013,29.1142147 C261.603013,29.4275455 261.8652,29.6877913 262.178783,29.6877913 L274.217911,29.6877913 Z M274.217911,13.75 C276.102013,13.75 277.619835,15.2603321 277.619835,17.1351379 L277.619835,29.1142147 C277.619835,30.9896679 276.102013,32.5 274.217911,32.5 L262.178783,32.5 C260.295331,32.5 258.77686,30.9896679 258.77686,29.1142147 L258.77686,17.1351379 C258.77686,15.2603321 260.295331,13.75 262.178783,13.75 L274.217911,13.75 Z" id="Fill-17"></path>
                    <g id="Text" transform="translate(285.157025, 13.750000)">
                        <polygon id="Fill-19" points="15.5553157 0.215875 18.2844066 0.215875 18.2844066 18.31775 15.0496959 18.31775 2.82123306 3.8365 2.82123306 18.31775 0.0921421488 18.31775 0.0921421488 0.215875 3.32622479 0.215875 15.5553157 14.69775"></polygon>
                    </g>
                    <g id="Icon">
                        <polygon id="Fill-22" points="51.5041322 32.1428571 45.0663229 38.5714286 32.1900826 38.5714286 45.0663229 25.7142857"></polygon>
                        <polygon id="Fill-24" points="38.6280992 19.3723511 32.7099843 13.0304164 38.6280992 6.68786949 32.1903934 0.34593484 25.7520661 6.68786949 19.6648977 0 12.8760331 6.68786949 32.1903934 25.7142857"></polygon>
                        <polygon id="Fill-26" points="6.43786115 12.8571429 25.7520661 32.142733 12.8757223 45 0 45 12.8757223 32.142733 0 19.285466"></polygon>
                    </g>
                </g>
            </g>
        </g>
    </g>
</svg>