<svg height="480" width="640" xmlns="http://www.w3.org/2000/svg"><g fill-rule="evenodd" stroke-width="1pt"><path d="m0 0h640v480h-640z" fill="#f00"/><path d="m0 0h314.4v157.2h-314.4z" fill="#00006b"/><path d="m162.8 144.4-12.5-8.4-12 8.5 3.9-15-11.5-9.2 14.8-.9 4.9-14.2 5.3 14.4 14.5.5-11.5 9.8zm-2.2-99.8-10-6.4-9.7 6.3 2.7-12-8.8-7.7 11.7-1 4.3-11.2 4.5 11.3 11.5 1-8.9 8zm-44 35.9-9.7-6.7-10 6.7 3.1-11.7-9.1-7.7 11.6-.6 4.2-11.5 4.1 11.4 11.8.7-9 7.5zm88.3-8-9.3-6-9 6 2.6-11-8.4-7.1 11-.9 3.8-10.4 4.2 10.5 10.7.6-8.3 7.4zm-26 26.2-6.2-3.9-6.2 4 1.6-7.4-5.5-5 7.2-.6 2.8-7 2.9 7 7.2.6-5.5 5z" fill="#fff"/></g></svg>