<?xml version="1.0" standalone="no"?>
<!DOCTYPE svg PUBLIC "-//W3C//DTD SVG 20010904//EN"
 "http://www.w3.org/TR/2001/REC-SVG-20010904/DTD/svg10.dtd">
<svg version="1.0" xmlns="http://www.w3.org/2000/svg"
 width="260.000000pt" height="260.000000pt" viewBox="0 0 260.000000 260.000000"
 preserveAspectRatio="xMidYMid meet">
<metadata>
Created by potrace 1.11, written by Peter Selinger 2001-2013
</metadata>
<g transform="translate(0.000000,260.000000) scale(0.100000,-0.100000)"
fill="#000000" stroke="none">
<path d="M0 1300 l0 -1300 1300 0 1300 0 0 1300 0 1300 -1300 0 -1300 0 0
-1300z m1184 780 c65 -71 120 -130 124 -130 4 0 64 57 134 127 l128 128 132
-132 132 -132 -110 -116 c-60 -64 -113 -122 -118 -130 -7 -10 9 -34 60 -90 38
-41 91 -100 118 -130 l48 -54 -127 -123 c-70 -68 -132 -125 -137 -127 -6 -2
-186 171 -400 385 l-389 389 138 132 c76 73 141 132 144 133 3 0 59 -58 123
-130z m-267 -782 l391 -391 -261 -268 -262 -269 -264 0 -263 0 262 266 262
267 -263 263 -264 264 130 130 c71 71 132 130 135 130 3 0 181 -176 397 -392z
m1308 -268 l130 -130 -130 -130 -130 -130 -265 0 -265 0 260 260 c143 143 262
260 265 260 3 0 64 -58 135 -130z"/>
</g>
</svg>
